<svg id="Layer_1" data-name="Layer 1" xmlns="http://www.w3.org/2000/svg" viewBox="0 0 200 227"><defs><style>.cls-1{fill:#fff;}</style></defs><title>c-sharp</title><path d="M407,343V449c-2.46,6.41-7.51,10.06-13.28,13.35C366.08,478.11,338.56,494.09,311,510h-8c-2.3-1.27-4.61-2.51-6.88-3.82-25.59-14.77-51.12-29.63-76.79-44.24-5.53-3.15-10.13-6.8-12.33-12.94V344c2.12-6,6.61-9.62,12-12.65C232.1,324,245,316.34,258,308.93c15.31-8.71,30.69-17.29,46-25.93h6c2.39,1.13,4.87,2.09,7.15,3.41,25.86,14.92,51.66,30,77.58,44.81C399.89,334.17,404.4,337.52,407,343Zm-69.95,74.77c-16.5,18.23-39.58,14.45-51.23,2.11a34.14,34.14,0,0,1,.71-47.36,32.26,32.26,0,0,1,23.31-9.79c14.08-.08,23.41,7.91,31,18.88l26.35-15.49c-13.57-25.82-44.64-39.46-73-32.4-29.11,7.25-49,33.18-49,63.82,0,28.76,20.93,54.88,49.62,61.89,30.33,7.41,57.84-9.12,67.62-26.34C354.11,428,345.72,423,337.05,417.77Zm35.72-.34h6.64c.24-1.85.42-3.29.62-4.83l4.78-.78v-6.29l-4.87-.82V397l4.93-.9v-5.84l-4.85-.9c-.26-1.81-.5-3.41-.73-5.05h-6.46c-.21,1.93-.38,3.52-.57,5.22h-8.1c-.19-1.9-.34-3.5-.51-5.17H357.3c-.23,2-.41,3.57-.6,5.18l-5.15.66v6l5.25.79v8l-5.27.6v6.43l5.25.65.59,5h6.22l.66-5h8.16C372.54,414.33,372.65,415.79,372.77,417.43Z" transform="translate(-207 -283)"/><path class="cls-1" d="M407,343c-2.6-5.48-7.11-8.83-12.27-11.78-25.92-14.84-51.72-29.89-77.58-44.81-2.28-1.32-4.76-2.28-7.15-3.41h97Z" transform="translate(-207 -283)"/><path class="cls-1" d="M311,510c27.56-15.91,55.08-31.89,82.72-47.65,5.77-3.29,10.82-6.94,13.28-13.35v61Z" transform="translate(-207 -283)"/><path class="cls-1" d="M304,283c-15.35,8.64-30.73,17.22-46,25.93C245,316.34,232.1,324,219,331.35c-5.42,3-9.91,6.63-12,12.65V283Z" transform="translate(-207 -283)"/><path class="cls-1" d="M207,449c2.2,6.14,6.8,9.79,12.33,12.94,25.67,14.61,51.2,29.47,76.79,44.24,2.27,1.31,4.58,2.55,6.88,3.82H207Z" transform="translate(-207 -283)"/><path class="cls-1" d="M337.05,417.77c8.67,5.21,17.06,10.27,25.44,15.32-9.78,17.22-37.29,33.75-67.62,26.34-28.69-7-49.61-33.13-49.62-61.89,0-30.64,19.91-56.57,49-63.82,28.32-7.06,59.39,6.58,73,32.4l-26.35,15.49c-7.63-11-17-19-31-18.88a32.26,32.26,0,0,0-23.31,9.79,34.14,34.14,0,0,0-.71,47.36C297.47,432.22,320.55,436,337.05,417.77Z" transform="translate(-207 -283)"/><path class="cls-1" d="M372.77,417.43c-.12-1.64-.23-3.1-.36-4.87h-8.16l-.66,5h-6.22l-.59-5-5.25-.65v-6.43l5.27-.6v-8l-5.25-.79v-6l5.15-.66c.19-1.61.37-3.2.6-5.18h6.35c.17,1.67.32,3.27.51,5.17h8.1c.19-1.7.36-3.29.57-5.22h6.46c.23,1.64.47,3.24.73,5.05l4.85.9v5.84l-4.93.9v7.75l4.87.82v6.29l-4.78.78c-.2,1.54-.38,3-.62,4.83Zm-.47-12.5v-8h-8v8Z" transform="translate(-207 -283)"/><path d="M372.3,404.93h-8v-8h8Z" transform="translate(-207 -283)"/></svg>