<svg id="Layer_1" data-name="Layer 1" xmlns="http://www.w3.org/2000/svg" viewBox="0 0 499.56 253.2"><defs><style>.cls-1{fill:#fff;}</style></defs><title>php</title><path d="M297.47,269.61H315c.39.05.77.13,1.15.14,13.17.23,26.31.93,39.4,2.4q12.82,1.44,25.59,3.32a370,370,0,0,1,39.55,8.21,316.22,316.22,0,0,1,58.53,21.24c14.68,7.14,28.56,15.54,41.09,26.08,9.63,8.1,18.14,17.22,24.69,28a72.78,72.78,0,0,1,10.43,29.22c.17,1.41.32,2.83.48,4.25v7.21a4.9,4.9,0,0,0-.16.85,68.37,68.37,0,0,1-6.47,24.64,97.89,97.89,0,0,1-19.91,27.73c-10.71,10.76-23,19.47-36.11,27-19.16,11-39.54,19-60.66,25.32a411.36,411.36,0,0,1-69.49,14.08c-12.14,1.43-24.32,2.52-36.54,2.85-10.88.29-21.77.32-32.66.24-12.78-.1-25.52-1.06-38.23-2.38q-15.9-1.65-31.64-4.43A394.43,394.43,0,0,1,179.17,505a293,293,0,0,1-54.38-22c-14.14-7.58-27.4-16.43-39.07-27.53-8.94-8.51-16.6-18-22-29.2-6.79-14.1-8.95-28.81-5.62-44.19a77.94,77.94,0,0,1,13.21-28.86c7.79-10.93,17.45-20,28.16-28a220.56,220.56,0,0,1,44.9-25.39,348.93,348.93,0,0,1,68.34-21,437.18,437.18,0,0,1,48.17-7.08c11.43-1.06,22.88-1.75,34.36-2C296,269.76,296.73,269.67,297.47,269.61Zm-135,166.62h25.81a117.45,117.45,0,0,0,18.54-1.38,53.35,53.35,0,0,0,28.58-13.78c15.66-14.53,22-32.62,19.85-53.61-1.23-11.87-7.68-20.64-18.31-26.17a50.87,50.87,0,0,0-23.22-5.44c-20.28-.2-40.56-.1-60.84-.15-.69,0-.79.34-.88.86q-1,5.26-2,10.53-5.92,30.35-11.83,60.7-5.84,30-11.65,59.94c-.31,1.6-.61,3.22-.92,4.87h29.81C157.72,460.46,160.08,448.37,162.44,436.23ZM385,335.72q-13.3,68.46-26.61,136.87h29.83q3.56-18.21,7.08-36.36H398c12-.2,23.92.52,35.85-.61a62.36,62.36,0,0,0,17.53-3.88c12.42-4.95,21.78-13.54,28.57-24.88s9.34-23.65,8.55-36.72a34.71,34.71,0,0,0-5-16.41c-4.56-7.42-11.23-12.1-19.36-14.87a67.06,67.06,0,0,0-21.79-3.14H385ZM279.33,436.17Q287,397,294.56,357.84c.2,0,.33,0,.45,0,8.39,0,16.78,0,25.17,0a28.81,28.81,0,0,1,8.83,1.31c3,1,5.15,2.74,5.85,5.93a19.05,19.05,0,0,1,.42,3.37c.13,3.81-.78,7.48-1.5,11.18q-4.74,24.44-9.49,48.86c-.49,2.55-1,5.09-1.49,7.7h30c.07-.27.15-.51.2-.76l3.36-17.31q4.16-21.36,8.31-42.73c.95-4.89,1.83-9.78,1.59-14.79s-1.43-9.89-4.67-14a23.79,23.79,0,0,0-10.93-7.35,63.63,63.63,0,0,0-20.86-3.43c-9.95-.17-19.9-.08-29.84-.1-.35,0-.69,0-1.13,0,2.37-12.2,4.72-24.26,7.07-36.36h-29.6Q263,367.78,249.73,436.17Z" transform="translate(-56.37 -269.61)"/><path class="cls-1" d="M297.47,269.61c-.74.06-1.48.15-2.22.16-11.48.21-22.93.9-34.36,2a437.18,437.18,0,0,0-48.17,7.08,348.93,348.93,0,0,0-68.34,21,220.56,220.56,0,0,0-44.9,25.39c-10.71,8-20.37,17.08-28.16,28a77.94,77.94,0,0,0-13.21,28.86c-3.33,15.38-1.17,30.09,5.62,44.19,5.39,11.19,13.05,20.69,22,29.2,11.67,11.1,24.93,19.95,39.07,27.53a293,293,0,0,0,54.38,22,394.43,394.43,0,0,0,44.9,10.57q15.75,2.77,31.64,4.43c12.71,1.32,25.45,2.28,38.23,2.38,10.89.08,21.78.05,32.66-.24,12.22-.33,24.4-1.42,36.54-2.85a411.36,411.36,0,0,0,69.49-14.08c21.12-6.29,41.5-14.36,60.66-25.32,13.15-7.52,25.4-16.23,36.11-27a97.89,97.89,0,0,0,19.91-27.73,68.37,68.37,0,0,0,6.47-24.64,4.9,4.9,0,0,1,.16-.85V522.81H56.37V269.61Z" transform="translate(-56.37 -269.61)"/><path class="cls-1" d="M555.94,392.51c-.16-1.42-.31-2.84-.48-4.25A72.78,72.78,0,0,0,545,359c-6.55-10.82-15.06-19.94-24.69-28-12.53-10.54-26.41-18.94-41.09-26.08a316.22,316.22,0,0,0-58.53-21.24,370,370,0,0,0-39.55-8.21q-12.76-1.89-25.59-3.32c-13.09-1.47-26.23-2.17-39.4-2.4-.38,0-.76-.09-1.15-.14H555.94Z" transform="translate(-56.37 -269.61)"/><path class="cls-1" d="M162.44,436.23c-2.36,12.14-4.72,24.23-7.08,36.37H125.55c.31-1.65.61-3.27.92-4.87q5.82-30,11.65-59.94Q144,377.43,150,347.09q1-5.26,2-10.53c.09-.52.19-.86.88-.86,20.28.05,40.56-.05,60.84.15a50.87,50.87,0,0,1,23.22,5.44c10.63,5.53,17.08,14.3,18.31,26.17,2.17,21-4.19,39.08-19.85,53.61a53.35,53.35,0,0,1-28.58,13.78,117.45,117.45,0,0,1-18.54,1.38H162.44Zm4.2-21.64.63,0h17.65A62.08,62.08,0,0,0,201,412.8c5.79-1.53,10.89-4.19,14.71-8.95a37,37,0,0,0,6.71-14c1.61-6,2.71-12.12,1.85-18.39-.75-5.36-3.43-9.28-8.53-11.43a35.74,35.74,0,0,0-13.4-2.63c-7.93-.16-15.86-.08-23.79-.13-.68,0-.9.24-1,.85-.25,1.44-.55,2.87-.83,4.3l-8.31,42.84C167.84,408.37,167.25,411.42,166.64,414.59Z" transform="translate(-56.37 -269.61)"/><path class="cls-1" d="M385,335.72h57.23a67.06,67.06,0,0,1,21.79,3.14c8.13,2.77,14.8,7.45,19.36,14.87a34.71,34.71,0,0,1,5,16.41c.79,13.07-1.79,25.45-8.55,36.72s-16.15,19.93-28.57,24.88a62.36,62.36,0,0,1-17.53,3.88c-11.93,1.13-23.9.41-35.85.61h-2.63q-3.54,18.18-7.08,36.36H358.42Q371.73,404.15,385,335.72Zm14.51,78.84c.31,0,.57.06.82.06h17.35A64,64,0,0,0,434,412.79c6.88-1.81,12.66-5.27,16.42-11.47a48.69,48.69,0,0,0,6.88-28.62c-.39-6.77-4-11.27-10.52-13.36a40.5,40.5,0,0,0-11.69-1.9c-7.86-.12-15.73-.07-23.59-.13-.72,0-.94.27-1.06.9-.65,3.48-1.33,7-2,10.43q-3.37,17.43-6.78,34.88C401,407.17,400.26,410.84,399.54,414.56Z" transform="translate(-56.37 -269.61)"/><path class="cls-1" d="M279.33,436.17h-29.6q13.31-68.46,26.6-136.81h29.6c-2.35,12.1-4.7,24.16-7.07,36.36.44,0,.78,0,1.13,0,9.94,0,19.89-.07,29.84.1a63.63,63.63,0,0,1,20.86,3.43,23.79,23.79,0,0,1,10.93,7.35c3.24,4.1,4.42,8.9,4.67,14s-.64,9.9-1.59,14.79q-4.18,21.36-8.31,42.73L353,435.42c0,.25-.13.49-.2.76h-30c.51-2.61,1-5.15,1.49-7.7q4.75-24.42,9.49-48.86c.72-3.7,1.63-7.37,1.5-11.18a19.05,19.05,0,0,0-.42-3.37c-.7-3.19-2.88-5-5.85-5.93a28.81,28.81,0,0,0-8.83-1.31c-8.39-.06-16.78,0-25.17,0-.12,0-.25,0-.45,0Q286.94,397,279.33,436.17Z" transform="translate(-56.37 -269.61)"/><path d="M166.64,414.59c.61-3.17,1.2-6.22,1.8-9.28l8.31-42.84c.28-1.43.58-2.86.83-4.3.11-.61.33-.86,1-.85,7.93.05,15.86,0,23.79.13a35.74,35.74,0,0,1,13.4,2.63c5.1,2.15,7.78,6.07,8.53,11.43.86,6.27-.24,12.37-1.85,18.39a37,37,0,0,1-6.71,14c-3.82,4.76-8.92,7.42-14.71,8.95a62.08,62.08,0,0,1-16.12,1.82H167.27Z" transform="translate(-56.37 -269.61)"/><path d="M399.54,414.56c.72-3.72,1.42-7.39,2.13-11q3.39-17.44,6.78-34.88c.68-3.48,1.36-6.95,2-10.43.12-.63.34-.9,1.06-.9,7.86.06,15.73,0,23.59.13a40.5,40.5,0,0,1,11.69,1.9c6.53,2.09,10.13,6.59,10.52,13.36a48.69,48.69,0,0,1-6.88,28.62c-3.76,6.2-9.54,9.66-16.42,11.47a64,64,0,0,1-16.31,1.84H400.36C400.11,414.62,399.85,414.59,399.54,414.56Z" transform="translate(-56.37 -269.61)"/></svg>