<svg id="Layer_1" data-name="Layer 1" xmlns="http://www.w3.org/2000/svg" viewBox="0 0 600 591.93"><defs><style>.cls-1{fill:#fff;}</style></defs><title>sql</title><path class="cls-1" d="M162,693H7V665c4.32,1.06,17.05,1,21-.23V589.63A8.68,8.68,0,0,1,30.24,593c9.32,20.8,18.73,41.57,27.91,62.43,3.44,7.83,9.26,11.47,17.6,11.4a49,49,0,0,0,6.93-.67,13.41,13.41,0,0,0,9.61-6.5A44.48,44.48,0,0,0,95,654.33q14-31.2,28-62.41c.39-.86.9-1.67,1.35-2.5l.74.16v75.85h19.39c.11-1.56.28-2.85.28-4.14q0-36,0-72a38.6,38.6,0,0,0-.49-5.46c-.62-4.38-3.2-7.22-7.25-8.75a34.75,34.75,0,0,0-16.18-2.25,17.35,17.35,0,0,0-13.46,8.41,39.42,39.42,0,0,0-2.45,4.91q-13.53,30.31-27,60.63c-.5,1.13-1.15,2.19-2.06,3.9-.85-1.85-1.4-3-1.9-4.17q-9.49-22-19-44Q51,593.38,47,584.22c-3.37-7.68-9.34-11.68-17.66-11.42a65.15,65.15,0,0,0-12.71,2.12,10.38,10.38,0,0,0-7.88,7.6A21.92,21.92,0,0,1,7,586V101.07H607V650c-.81-1.41-1.68-2.78-2.4-4.23A14.54,14.54,0,0,0,587.93,638a14.54,14.54,0,0,0,.68,28.33,14.48,14.48,0,0,0,16.06-8c.71-1.46,1.55-2.86,2.33-4.29v39H231c3.76-1.25,7.6-2.28,11.25-3.79,8.58-3.56,12.81-9.86,12.71-19.43-.23-20.81-.07-41.63-.06-62.45v-5.42c-6.83.06-13.18-.16-19.8.14V619.6c0,5.5,0,11,0,16.49s.1,11.19-.09,16.7c-1.11.15-1.59.28-2.08.28q-20.23,0-40.47,0a22,22,0,0,1-4-.3c-5.64-1-7.63-3.4-7.64-9.18,0-12.32,0-24.65,0-37,0-1.44-.18-2.88-.29-4.55h-9.85l-9.1,0a10,10,0,0,0-.39,1.59q-.08,21-.12,42a13,13,0,0,0,5.22,10.85A42.52,42.52,0,0,0,175.7,662a45.44,45.44,0,0,0,17.61,3q18.74,0,37.47,0c1.28,0,2.55.17,4.2.29,0,1.94,0,3.57,0,5.21,0,4.85-1.52,7.13-6.11,8.42a30.69,30.69,0,0,1-7.87,1c-18,.08-36,0-54,.05-1.75,0-3.51.14-5.85.23C161.48,684.82,161.74,688.91,162,693Zm76.59-282.59c1.34,2.55,2.26,4.26,3.15,6,4.35,8.43,8.17,17.2,13.16,25.23,8.51,13.7,20.09,24.84,32.23,35.32,7.93,6.86,16.31,13.19,23.52,20.9,2.35,2.52,5.4,4.41,8.2,6.48a13.76,13.76,0,0,0,2.79,1.24l.9-1.18c-1-.61-2-1.16-2.94-1.86-8.7-6.62-15.77-14.84-22.28-23.51a429.15,429.15,0,0,1-36.38-58.51c-7.89-15-15.39-30.26-20.28-46.62-.5-1.65-1.69-3.09-2.84-5.1-3,3.78-5.46,7.09-8.16,10.21a52.79,52.79,0,0,0-12.56,25.74c-2,11.8-3.48,23.7-5.19,35.56-.23,1.57-.52,3.12-.75,4.5-3,.92-4.76-.45-6.57-1.54a20.89,20.89,0,0,1-8.31-9.77c-3.26-7.46-6.48-15-9-22.72-2.79-8.56-3.86-17.52-4.66-26.5-1.43-15.9-.72-31.67,3.26-47.12,2.15-8.36,5.46-16.41,8.06-24.66,1.29-4.11,2.27-8.34,3.18-12.56,1-4.52-.42-8.61-3.11-12.21-1.49-2-3.39-3.67-5-5.6a148,148,0,0,1-9.22-11.76,114.69,114.69,0,0,1-12.84-27c-3.66-10.89-7.19-21.82-10.67-32.77A114.56,114.56,0,0,0,138.77,176q-8.11-10.78-16.3-21.51c-4.67-6.13-8.78-12.55-10.9-20.07-1.83-6.51,2.14-14.37,11.16-13.65A41.91,41.91,0,0,1,133,122.88a171.72,171.72,0,0,1,35.16,16.59c4.64,2.89,8.8,6.55,13.17,9.87,2.77,2.12,5.43,4.52,9.13,4.81,9,.72,17.94,1.13,26.87,2.09a88,88,0,0,1,16.13,3.08c15.54,4.73,29.87,12.2,43.62,20.76a300.07,300.07,0,0,1,88.6,84c12,17.24,23.13,35,29.64,55.27a69.47,69.47,0,0,0,3.28,7.82c10.55,22.83,21.07,45.67,31.74,68.44,2.61,5.57,5.93,10.8,8.65,16.33,4.67,9.45,12.23,15.12,22.27,17.76l.48.13c9,3.07,17.91,6.25,26.92,9.18a89.94,89.94,0,0,1,23.23,11.41c13.46,9.24,27,18.31,40.49,27.54a47.59,47.59,0,0,1,6.52,5.42,33.79,33.79,0,0,1,3.41,4.67c-.86.45-1.15.71-1.43.72-1.5,0-3,.05-4.5,0a170.78,170.78,0,0,0-68.87,12.06c-2.87,1.13-5.44,2.52-6.1,5.8.91,1.8,1.87,3.37,2.53,5.07a64.31,64.31,0,0,0,18.64,25.62c11.28,9.61,23.29,18.33,36.92,24.54,7.57,3.45,15.18,6.89,22.47,10.89a189,189,0,0,1,34.35,24.84c1.62,1.44,3.12,3.21,6.08,3.93a53.82,53.82,0,0,1-2.42-5.15c-1.41-4.23-4-7.54-7.19-10.63a143.31,143.31,0,0,1-9.75-10.7,147.18,147.18,0,0,0-26.25-25.23c-8.34-6.05-17.31-11.22-25.84-17-5.07-3.45-9.94-7.25-14.66-11.18a14.47,14.47,0,0,1-5.11-8.09c5.28-1.25,10.36-2.2,15.28-3.68a151.58,151.58,0,0,1,29-5.2c10.16-1,19.79-4.13,30.07-7.34-.64-1.65-.88-3.13-1.68-4.21C576,482.69,567.7,472.72,557,465c-5-3.62-9.71-7.6-14.48-11.51a252.53,252.53,0,0,0-72.16-41.11c-6-2.26-10.41-5.62-13.19-11.29-1.32-2.69-2.74-5.34-4-8-2.77-5.7-5.41-11.45-8.24-17.11-12.36-24.74-24.1-49.75-34.06-75.57a113.13,113.13,0,0,0-7.61-16.27c-17.09-29.21-37.41-55.9-62.19-79.09-21.41-20-45.33-36.59-70.41-51.6-15.18-9.09-32.14-12.54-49.12-16a8.09,8.09,0,0,0-1-.07c-6.49-.38-13-.89-19.47-1.08a11.49,11.49,0,0,1-6.89-2.45c-1.46-1.1-2.9-2.23-4.3-3.42C176.08,118.62,160.06,111,143,105.58c-7.42-2.33-15.08-4-23.07-2.79-16.95,2.56-27.53,17.71-24,34.54,1.84,8.87,6.27,16.45,11.59,23.57,6.58,8.81,13.36,17.47,19.89,26.32,4.65,6.3,8.93,12.83,11.33,20.44q5.43,17.13,11.16,34.16a187.74,187.74,0,0,0,15.73,35c3.45,5.89,6.8,11.85,12.09,16.42,2.05,1.76,3.57,4,3.33,6.77-1.91,5.67-3.55,11.4-5.11,17.15-.92,3.38-1.57,6.82-2.55,10.18a162.12,162.12,0,0,0-3.18,78.58c3.15,15.68,8.78,30.38,18.47,43.29,3.52,4.69,7.42,9,12.54,12,11.85,7,25.67,2,29.94-11a58,58,0,0,0,2-8.74c1.48-8.87,2.82-17.76,4.26-26.64C237.55,413.71,238,412.53,238.59,410.41ZM456.69,662c9.71-6.35,11.32-9.34,11.33-20.76,0-14.66-.08-29.32,0-44,.06-9.29-4.36-15.47-12.67-19.05a41.87,41.87,0,0,0-16.52-3.45q-19.74-.08-39.48,0a42.4,42.4,0,0,0-16.06,3.23c-9.13,3.75-13.2,9.75-13.23,19.65q-.06,22.23,0,44.48c0,11.09,4.38,17.2,14.9,21A44.67,44.67,0,0,0,401.12,666l36.47-.58,14.92,13.44h22.78Zm-186.52,3.3a9.89,9.89,0,0,0,1.83.44c18.5,0,37,.12,55.48-.05a40.22,40.22,0,0,0,21.79-6.27c5.29-3.39,8.29-8.08,8.34-14.47,0-4.33,0-8.66,0-13a12.09,12.09,0,0,0-4.53-9.63,37.86,37.86,0,0,0-6.65-4.35,40.37,40.37,0,0,0-18.34-4.13c-7.83,0-15.66,0-23.49-.06a39.31,39.31,0,0,1-7.43-.72c-4.57-.95-6.85-3.64-7.16-8.35a89.86,89.86,0,0,1,0-9c.16-4.65,1.85-6.73,6.42-7.46a59.62,59.62,0,0,1,9-.55c15.82,0,31.65,0,47.48,0H358v-13c-1.3-.12-2.42-.32-3.55-.32-17.33,0-34.65,0-52,0a95,95,0,0,0-10,.62,32,32,0,0,0-14.83,5.5c-3.73,2.56-6.48,6-6.83,10.57a146.81,146.81,0,0,0-.35,17.92,11.4,11.4,0,0,0,5.33,8.71,49.12,49.12,0,0,0,9.59,5.19A48.49,48.49,0,0,0,303,625.79c6.49,0,13-.1,19.49.06a39.47,39.47,0,0,1,8.87,1.12c4.54,1.16,6.24,3.63,6.35,8.29,0,2.16,0,4.33,0,6.5-.05,6-2.75,9.3-8.65,10.19a50.26,50.26,0,0,1-7.47.38c-15.5,0-31,0-46.48,0-1.61,0-3.23.09-5,.14ZM567.5,652.35H562c-15.32,0-30.64.06-46-.05a46.69,46.69,0,0,1-9.85-1.18c-3.86-.88-5.74-3.76-6-7.64-.1-1.32,0-2.66,0-4V574.31H480.3V634.8c0,2.5,0,5,0,7.5.11,9.59,4.82,16,13.61,19.52a31.73,31.73,0,0,0,7.15,2.12,123,123,0,0,0,15.85,1.7c15.65.21,31.3.08,47,.06,1.12,0,2.24-.13,3.62-.23Zm-370.11-463-.61,1.25c3.74,4.61,7.92,8.93,11.07,13.9s5.49,10.84,8.26,16.51c6.43-4.55,7.95-10.72,7.81-16.68-2.41-8.05-7.48-12.59-14.35-16.33Z" transform="translate(-7 -101.07)"/><path d="M7,586a21.92,21.92,0,0,0,1.77-3.48,10.38,10.38,0,0,1,7.88-7.6,65.15,65.15,0,0,1,12.71-2.12c8.32-.26,14.29,3.74,17.66,11.42q4,9.13,7.93,18.32,9.49,22,19,44c.5,1.17,1,2.32,1.9,4.17.91-1.71,1.56-2.77,2.06-3.9q13.53-30.32,27-60.63a39.42,39.42,0,0,1,2.45-4.91,17.35,17.35,0,0,1,13.46-8.41A34.75,34.75,0,0,1,137,575.12c4.05,1.53,6.63,4.37,7.25,8.75a38.6,38.6,0,0,1,.49,5.46q0,36,0,72c0,1.29-.17,2.58-.28,4.14H125.09V589.58l-.74-.16c-.45.83-1,1.64-1.35,2.5q-14,31.2-28,62.41a44.48,44.48,0,0,1-2.75,5.31,13.41,13.41,0,0,1-9.61,6.5,49,49,0,0,1-6.93.67c-8.34.07-14.16-3.57-17.6-11.4C49,634.55,39.56,613.78,30.24,593A8.68,8.68,0,0,0,28,589.63v75.14C24.05,666,11.32,666.06,7,665Z" transform="translate(-7 -101.07)"/><path d="M162,693c-.26-4.09-.52-8.18-.81-12.79,2.34-.09,4.1-.23,5.85-.23,18,0,36,0,54-.05a30.69,30.69,0,0,0,7.87-1c4.59-1.29,6.06-3.57,6.11-8.42,0-1.64,0-3.27,0-5.21-1.65-.12-2.92-.28-4.2-.29q-18.74,0-37.47,0a45.44,45.44,0,0,1-17.61-3,42.52,42.52,0,0,1-9.42-5.44,13,13,0,0,1-5.22-10.85q.08-21,.12-42a10,10,0,0,1,.39-1.59l9.1,0h9.85c.11,1.67.29,3.11.29,4.55,0,12.32,0,24.65,0,37,0,5.78,2,8.15,7.64,9.18a22,22,0,0,0,4,.3q20.24,0,40.47,0c.49,0,1-.13,2.08-.28.19-5.51.07-11.11.09-16.7s0-11,0-16.49V602.05c6.62-.3,13-.08,19.8-.14v5.42c0,20.82-.17,41.64.06,62.45.1,9.57-4.13,15.87-12.71,19.43-3.65,1.51-7.49,2.54-11.25,3.79Z" transform="translate(-7 -101.07)"/><path d="M607,654c-.78,1.43-1.62,2.83-2.33,4.29a14.48,14.48,0,0,1-16.06,8,14.54,14.54,0,0,1-.68-28.33,14.54,14.54,0,0,1,16.67,7.79c.72,1.45,1.59,2.82,2.4,4.23Zm-15.61-13.34a11.17,11.17,0,0,0-11.23,11.5,11.32,11.32,0,1,0,22.63-.13A11.28,11.28,0,0,0,591.39,640.66Z" transform="translate(-7 -101.07)"/><path d="M238.59,410.41c-.59,2.12-1,3.3-1.24,4.51-1.44,8.88-2.78,17.77-4.26,26.64a58,58,0,0,1-2,8.74c-4.27,13-18.09,18-29.94,11-5.12-3-9-7.36-12.54-12-9.69-12.91-15.32-27.61-18.47-43.29a162.12,162.12,0,0,1,3.18-78.58c1-3.36,1.63-6.8,2.55-10.18,1.56-5.75,3.2-11.48,5.11-17.15.24-2.81-1.28-5-3.33-6.77-5.29-4.57-8.64-10.53-12.09-16.42a187.74,187.74,0,0,1-15.73-35q-5.76-17-11.16-34.16c-2.4-7.61-6.68-14.14-11.33-20.44-6.53-8.85-13.31-17.51-19.89-26.32-5.32-7.12-9.75-14.7-11.59-23.57-3.5-16.83,7.08-32,24-34.54,8-1.21,15.65.46,23.07,2.79,17.11,5.39,33.13,13,46.94,24.78,1.4,1.19,2.84,2.32,4.3,3.42a11.49,11.49,0,0,0,6.89,2.45c6.5.19,13,.7,19.47,1.08a8.09,8.09,0,0,1,1,.07c17,3.46,33.94,6.91,49.12,16,25.08,15,49,31.57,70.41,51.6,24.78,23.19,45.1,49.88,62.19,79.09a113.13,113.13,0,0,1,7.61,16.27c10,25.82,21.7,50.83,34.06,75.57,2.83,5.66,5.47,11.41,8.24,17.11,1.3,2.69,2.72,5.34,4,8,2.78,5.67,7.15,9,13.19,11.29a252.53,252.53,0,0,1,72.16,41.11c4.77,3.91,9.5,7.89,14.48,11.51,10.66,7.76,18.93,17.73,26.71,28.17.8,1.08,1,2.56,1.68,4.21-10.28,3.21-19.91,6.34-30.07,7.34a151.58,151.58,0,0,0-29,5.2c-4.92,1.48-10,2.43-15.28,3.68a14.47,14.47,0,0,0,5.11,8.09c4.72,3.93,9.59,7.73,14.66,11.18,8.53,5.81,17.5,11,25.84,17A147.18,147.18,0,0,1,583,575.09a143.31,143.31,0,0,0,9.75,10.7c3.16,3.09,5.78,6.4,7.19,10.63a53.82,53.82,0,0,0,2.42,5.15c-3-.72-4.46-2.49-6.08-3.93a189,189,0,0,0-34.35-24.84c-7.29-4-14.9-7.44-22.47-10.89-13.63-6.21-25.64-14.93-36.92-24.54a64.31,64.31,0,0,1-18.64-25.62c-.66-1.7-1.62-3.27-2.53-5.07.66-3.28,3.23-4.67,6.1-5.8a170.78,170.78,0,0,1,68.87-12.06c1.5.05,3,0,4.5,0,.28,0,.57-.27,1.43-.72a33.79,33.79,0,0,0-3.41-4.67,47.59,47.59,0,0,0-6.52-5.42c-13.47-9.23-27-18.3-40.49-27.54a89.94,89.94,0,0,0-23.23-11.41c-9-2.93-17.95-6.11-26.92-9.18l-.48-.13c-10-2.64-17.6-8.31-22.27-17.76-2.72-5.53-6-10.76-8.65-16.33-10.67-22.77-21.19-45.61-31.74-68.44a69.47,69.47,0,0,1-3.28-7.82c-6.51-20.24-17.63-38-29.64-55.27a300.07,300.07,0,0,0-88.6-84c-13.75-8.56-28.08-16-43.62-20.76a88,88,0,0,0-16.13-3.08c-8.93-1-17.92-1.37-26.87-2.09-3.7-.29-6.36-2.69-9.13-4.81-4.37-3.32-8.53-7-13.17-9.87A171.72,171.72,0,0,0,133,122.88a41.91,41.91,0,0,0-10.22-2.09c-9-.72-13,7.14-11.16,13.65,2.12,7.52,6.23,13.94,10.9,20.07q8.16,10.74,16.3,21.51a114.56,114.56,0,0,1,17.55,34.57c3.48,10.95,7,21.88,10.67,32.77a114.69,114.69,0,0,0,12.84,27,148,148,0,0,0,9.22,11.76c1.57,1.93,3.47,3.61,5,5.6,2.69,3.6,4.07,7.69,3.11,12.21-.91,4.22-1.89,8.45-3.18,12.56-2.6,8.25-5.91,16.3-8.06,24.66-4,15.45-4.69,31.22-3.26,47.12.8,9,1.87,17.94,4.66,26.5,2.52,7.74,5.74,15.26,9,22.72a20.89,20.89,0,0,0,8.31,9.77c1.81,1.09,3.61,2.46,6.57,1.54.23-1.38.52-2.93.75-4.5,1.71-11.86,3.15-23.76,5.19-35.56A52.79,52.79,0,0,1,229.66,379c2.7-3.12,5.15-6.43,8.16-10.21,1.15,2,2.34,3.45,2.84,5.1,4.89,16.36,12.39,31.58,20.28,46.62A429.15,429.15,0,0,0,297.32,479c6.51,8.67,13.58,16.89,22.28,23.51.92.7,2,1.25,2.94,1.86l-.9,1.18a13.76,13.76,0,0,1-2.79-1.24c-2.8-2.07-5.85-4-8.2-6.48-7.21-7.71-15.59-14-23.52-20.9-12.14-10.48-23.72-21.62-32.23-35.32-5-8-8.81-16.8-13.16-25.23C240.85,414.67,239.93,413,238.59,410.41Z" transform="translate(-7 -101.07)"/><path d="M456.69,662l18.6,16.9H452.51l-14.92-13.44-36.47.58A44.67,44.67,0,0,1,385,663.12c-10.52-3.85-14.88-10-14.9-21q0-22.25,0-44.48c0-9.9,4.1-15.9,13.23-19.65a42.4,42.4,0,0,1,16.06-3.23q19.74-.08,39.48,0a41.87,41.87,0,0,1,16.52,3.45c8.31,3.58,12.73,9.76,12.67,19.05-.11,14.66,0,29.32,0,44C468,652.62,466.4,655.61,456.69,662Zm-12.33-11.19c4.26-2.16,5.38-5.76,5.36-10,0-8.83,0-17.65,0-26.48,0-5.16.09-10.33,0-15.49-.12-5.38-2.31-8.31-7.42-9.95a18.48,18.48,0,0,0-5.37-.9c-10.82-.08-21.65,0-32.47,0a16.22,16.22,0,0,0-3.48.32c-8.17,1.84-9.84,6.27-9.74,11.75.19,10.66.05,21.32.05,32,0,3-.09,6,0,9,.26,6.37,3.13,9.78,9.28,11.26,3.78.9,17.73.92,22.34-.06l-15.35-14h22.78C435,642.31,439.67,646.53,444.36,650.77Z" transform="translate(-7 -101.07)"/><path d="M270.17,665.26V652.49c1.73,0,3.35-.13,5-.14,15.49,0,31,0,46.48,0a50.26,50.26,0,0,0,7.47-.38c5.9-.89,8.6-4.19,8.65-10.19,0-2.17,0-4.34,0-6.5-.11-4.66-1.81-7.13-6.35-8.29a39.47,39.47,0,0,0-8.87-1.12c-6.5-.16-13,0-19.49-.06a48.49,48.49,0,0,1-17.65-2.92,49.12,49.12,0,0,1-9.59-5.19,11.4,11.4,0,0,1-5.33-8.71,146.81,146.81,0,0,1,.35-17.92c.35-4.57,3.1-8,6.83-10.57a32,32,0,0,1,14.83-5.5,95,95,0,0,1,10-.62c17.33-.07,34.65-.05,52,0,1.13,0,2.25.2,3.55.32v13h-5.12c-15.83,0-31.66,0-47.48,0a59.62,59.62,0,0,0-9,.55c-4.57.73-6.26,2.81-6.42,7.46a89.86,89.86,0,0,0,0,9c.31,4.71,2.59,7.4,7.16,8.35a39.31,39.31,0,0,0,7.43.72c7.83.09,15.66,0,23.49.06a40.37,40.37,0,0,1,18.34,4.13,37.86,37.86,0,0,1,6.65,4.35,12.09,12.09,0,0,1,4.53,9.63c0,4.33,0,8.66,0,13-.05,6.39-3.05,11.08-8.34,14.47a40.22,40.22,0,0,1-21.79,6.27c-18.49.17-37,.06-55.48.05A9.89,9.89,0,0,1,270.17,665.26Z" transform="translate(-7 -101.07)"/><path d="M567.5,652.35v13.12c-1.38.1-2.5.23-3.62.23-15.66,0-31.31.15-47-.06a123,123,0,0,1-15.85-1.7,31.73,31.73,0,0,1-7.15-2.12c-8.79-3.51-13.5-9.93-13.61-19.52,0-2.5,0-5,0-7.5V574.31h19.78v65.18c0,1.33-.06,2.67,0,4,.29,3.88,2.17,6.76,6,7.64A46.69,46.69,0,0,0,516,652.3c15.32.11,30.64.05,46,.05Z" transform="translate(-7 -101.07)"/><path d="M197.39,189.35,209.57,188c6.87,3.74,11.94,8.28,14.35,16.33.14,6-1.38,12.13-7.81,16.68-2.77-5.67-5-11.41-8.26-16.51s-7.33-9.29-11.07-13.9Z" transform="translate(-7 -101.07)"/><path class="cls-1" d="M591.39,640.66A11.28,11.28,0,0,1,602.79,652a11.32,11.32,0,1,1-22.63.13A11.17,11.17,0,0,1,591.39,640.66Zm6.91,19.48c-1.58-2.6-2.78-4.56-4-6.5l3.57-2.73V646c-3.84-3.2-7.88-2.07-11.82-1.79-.89,9.64-.57,13.83,1.6,16.32.48-2.74.9-5.11,1.33-7.53C593.67,653.75,592.62,660.23,598.3,660.14Z" transform="translate(-7 -101.07)"/><path class="cls-1" d="M444.36,650.77c-4.69-4.24-9.38-8.46-14-12.64H407.56l15.35,14c-4.61,1-18.56,1-22.34.06-6.15-1.48-9-4.89-9.28-11.26-.12-3,0-6,0-9,0-10.66.14-21.32-.05-32-.1-5.48,1.57-9.91,9.74-11.75a16.22,16.22,0,0,1,3.48-.32c10.82,0,21.65,0,32.47,0a18.48,18.48,0,0,1,5.37.9c5.11,1.64,7.3,4.57,7.42,9.95.11,5.16,0,10.33,0,15.49,0,8.83,0,17.65,0,26.48C449.74,645,448.62,648.61,444.36,650.77Z" transform="translate(-7 -101.07)"/><path d="M598.3,660.14c-5.68.09-4.63-6.39-9.29-7.16-.43,2.42-.85,4.79-1.33,7.53-2.17-2.49-2.49-6.68-1.6-16.32,3.94-.28,8-1.41,11.82,1.79v4.93l-3.57,2.73C595.52,655.58,596.72,657.54,598.3,660.14Zm-9.63-9.07,6.1-.62c.11-1.36.18-2.28.3-3.79l-6.4-.58Z" transform="translate(-7 -101.07)"/><path class="cls-1" d="M588.67,651.07v-5l6.4.58c-.12,1.51-.19,2.43-.3,3.79Z" transform="translate(-7 -101.07)"/></svg>