<svg id="Layer_1" data-name="Layer 1" xmlns="http://www.w3.org/2000/svg" viewBox="0 0 261 268"><defs><style>.cls-1{fill:#fff;}</style></defs><title>unity</title><path class="cls-1" d="M409,263h29V531H177V263H408a8.55,8.55,0,0,1-1.63.87c-11.85,3.12-23.72,6.17-35.57,9.32-11.36,3-22.7,6.12-34,9.2Q320,287,303.3,291.52q-8.13,14.22-16,28L257,318.73c-26.66,26.68-52.52,52.57-78.16,78.25l77.57,77.56h31.35l15.56,27.36,105.62,28.28c9.64-35.19,18.87-70.4,28.37-105.57L421,396.69q8.46-14.54,16.3-28C427.75,333.1,418.37,298.05,409,263Z" transform="translate(-177 -263)"/><path d="M409,263c9.37,35.05,18.75,70.1,28.28,105.72q-7.84,13.47-16.3,28l16.32,27.92c-9.5,35.17-18.73,70.38-28.37,105.57L303.31,501.9l-15.56-27.36H256.4L178.83,397c25.64-25.68,51.5-51.57,78.16-78.25l30.27.81q7.9-13.82,16-28Q320,287,336.76,282.39c11.34-3.08,22.68-6.18,34-9.2,11.85-3.15,23.72-6.2,35.57-9.32A8.55,8.55,0,0,0,408,263Zm-14.18,52.24-1.51-.48Q369.54,355.68,346,396.61c.74,1.35,1.27,2.37,1.84,3.37l31.14,53.91q6.36,11,12.74,22c.64,1.11,1.07,2.57,3.17,1.89,2.27-7.78,4.65-15.7,6.87-23.66,5-17.86,9.87-35.75,14.89-53.61a13.63,13.63,0,0,0-.08-7.8c-4.9-17.21-9.68-34.46-14.5-51.69ZM229.7,410.33l59,60.33c10.31,2.67,20.56,5.35,30.82,8q23.11,5.92,46.23,11.82c1.76.45,3.47,1.11,5.19,0-.79-3.53-42-75.63-46.11-80.78C317.4,408.79,234.09,409.13,229.7,410.33Zm-.35-26.67H325a26.5,26.5,0,0,0,1.8-2.47q10.75-18.56,21.45-37.13,10.59-18.35,21.16-36.69c.84-1.47,2.22-3,1-5.54-27.34,6.64-54.45,14.06-81.83,20.76-1.77,2-3.47,4-5.33,5.91q-25,25.49-50.08,50.94C232.09,380.47,231.18,381.6,229.35,383.66Z" transform="translate(-177 -263)"/><path class="cls-1" d="M394.82,315.24,402,341c4.82,17.23,9.6,34.48,14.5,51.69a13.63,13.63,0,0,1,.08,7.8c-5,17.86-9.9,35.75-14.89,53.61-2.22,8-4.6,15.88-6.87,23.66-2.1.68-2.53-.78-3.17-1.89q-6.37-11-12.74-22L347.79,400c-.57-1-1.1-2-1.84-3.37q23.69-40.85,47.36-81.85Z" transform="translate(-177 -263)"/><path class="cls-1" d="M229.7,410.33c4.39-1.2,87.7-1.54,95.09-.65,4.13,5.15,45.32,77.25,46.11,80.78-1.72,1.11-3.43.45-5.19,0q-23.1-5.94-46.23-11.82c-10.26-2.63-20.51-5.31-30.82-8Z" transform="translate(-177 -263)"/><path class="cls-1" d="M229.35,383.66c1.83-2.06,2.74-3.19,3.75-4.22q25-25.47,50.08-50.94c1.86-1.9,3.56-3.94,5.33-5.91,27.38-6.7,54.49-14.12,81.83-20.76,1.24,2.58-.14,4.07-1,5.54q-10.53,18.38-21.16,36.69-10.72,18.57-21.45,37.13a26.5,26.5,0,0,1-1.8,2.47Z" transform="translate(-177 -263)"/></svg>