<svg id="Layer_1" data-name="Layer 1" xmlns="http://www.w3.org/2000/svg" viewBox="0 0 523.62 523.56"><defs><style>.cls-1{fill:#fff;}</style></defs><title>vs</title><path d="M568.33,216.9V576.17c-.13.18-.34.35-.37.55-2.11,12.79-9.68,21-21.2,26.4-17.82,8.33-35.48,17-53.21,25.51-17.33,8.32-34.59,16.78-52,24.88a31.83,31.83,0,0,1-37.39-7.41L248.77,474.26q-8.72-9.63-17.51-19.28c-.92.69-1.65,1.2-2.34,1.76q-21.31,17.47-42.62,34.95Q153.66,518.53,121,545.38c-6.76,5.54-14.4,6.9-22.49,3.67q-20.06-8-39.89-16.51c-8.69-3.75-13.25-10.75-13.26-20.18q-.12-115.86,0-231.7c0-9.29,4.4-16.3,13-20,13.37-5.83,26.87-11.38,40.4-16.84,7.84-3.16,15.26-1.88,21.86,3.38,3.71,3,7.2,6.16,10.85,9.16q32.93,27,65.88,54l33.84,27.73C233.11,336,235,334,236.76,332l61-67.49q52.39-57.94,104.78-115.9C413.93,136,428,133,443.4,140.34Q496,165.52,548.6,190.83c8.76,4.2,14.94,10.67,18,19.93C567.32,212.77,567.77,214.85,568.33,216.9ZM437.56,285.69,302.38,396.51,437.56,507.33ZM110.85,321.76V471.27l67.57-74.77Z" transform="translate(-44.71 -135.15)"/><path class="cls-1" d="M568.33,216.9c-.56-2.05-1-4.13-1.69-6.14-3.1-9.26-9.28-15.73-18-19.93Q496,165.62,443.4,140.34C428,133,413.93,136,402.56,148.62q-52.32,58-104.78,115.9l-61,67.49c-1.8,2-3.65,4-5.59,6.08l-33.84-27.73q-32.94-27-65.88-54c-3.65-3-7.14-6.21-10.85-9.16-6.6-5.26-14-6.54-21.86-3.38-13.53,5.46-27,11-40.4,16.84-8.57,3.73-13,10.74-13,20q-.1,115.84,0,231.7c0,9.43,4.57,16.43,13.26,20.18q19.81,8.55,39.89,16.51c8.09,3.23,15.73,1.87,22.49-3.67q32.67-26.82,65.28-53.69,21.3-17.49,42.62-34.95c.69-.56,1.42-1.07,2.34-1.76q8.79,9.67,17.51,19.28L404.14,646.1a31.83,31.83,0,0,0,37.39,7.41c17.43-8.1,34.69-16.56,52-24.88,17.73-8.51,35.39-17.18,53.21-25.51,11.52-5.38,19.09-13.61,21.2-26.4,0-.2.24-.37.37-.55V658.7H44.71V135.15H568.33Z" transform="translate(-44.71 -135.15)"/><path class="cls-1" d="M437.56,285.69V507.33L302.38,396.51Z" transform="translate(-44.71 -135.15)"/><path class="cls-1" d="M110.85,321.76l67.57,74.74-67.57,74.77Z" transform="translate(-44.71 -135.15)"/></svg>