<?xml version="1.0" standalone="no"?>
<!DOCTYPE svg PUBLIC "-//W3C//DTD SVG 20010904//EN"
 "http://www.w3.org/TR/2001/REC-SVG-20010904/DTD/svg10.dtd">
<svg version="1.0" xmlns="http://www.w3.org/2000/svg"
 width="70.000000pt" height="70.000000pt" viewBox="0 0 70.000000 70.000000"
 preserveAspectRatio="xMidYMid meet">
<metadata>
Created by potrace 1.11, written by Peter Selinger 2001-2013
</metadata>
<g transform="translate(0.000000,70.000000) scale(0.100000,-0.100000)"
fill="#000000" stroke="none">
<path d="M0 350 l0 -350 350 0 350 0 0 350 0 350 -350 0 -350 0 0 -350z m202
38 l3 -123 63 -3 c58 -3 62 -4 62 -27 0 -25 -1 -25 -100 -25 l-100 0 0 150 0
150 35 0 34 0 3 -122z m348 92 c37 -34 38 -73 4 -78 -15 -2 -29 7 -44 27 -25
36 -52 39 -80 11 -26 -26 -29 -134 -3 -162 23 -26 59 -23 79 7 11 17 25 25 45
25 39 0 39 -32 0 -71 -25 -25 -37 -29 -83 -29 -91 0 -128 45 -128 152 0 100
42 147 131 148 38 0 53 -5 79 -30z"/>
</g>
</svg>
