<?xml version="1.0" encoding="utf-8"?>
<!-- Generator: Adobe Illustrator 25.2.1, SVG Export Plug-In . SVG Version: 6.00 Build 0)  -->
<svg version="1.1" id="Layer_1" xmlns="http://www.w3.org/2000/svg" xmlns:xlink="http://www.w3.org/1999/xlink" x="0px" y="0px"
	 viewBox="0 0 200 227" style="enable-background:new 0 0 200 227;" xml:space="preserve">
<path d="M200,60v106c-2.5,6.4-7.5,10.1-13.3,13.4c-27.6,15.8-55.2,31.7-82.7,47.6h-8c-2.3-1.3-4.6-2.5-6.9-3.8
	c-25.6-14.8-51.1-29.6-76.8-44.2C6.8,175.8,2.2,172.1,0,166V61c2.1-6,6.6-9.6,12-12.6c13.1-7.4,26-15,39-22.4
	C66.3,17.2,81.7,8.6,97,0h6c2.4,1.1,4.9,2.1,7.1,3.4c25.9,14.9,51.7,30,77.6,44.8C192.9,51.2,197.4,54.5,200,60z M130,134.8
	c-16.5,18.2-39.6,14.5-51.2,2.1c-12.5-13.4-12.2-34.3,0.7-47.4c6.1-6.3,14.5-9.8,23.3-9.8c14.1-0.1,23.4,7.9,31,18.9l26.4-15.5
	c-13.6-25.8-44.6-39.5-73-32.4c-29.1,7.2-49,33.2-49,63.8c0,28.8,20.9,54.9,49.6,61.9c30.3,7.4,57.8-9.1,67.6-26.3
	C147.1,145,138.7,140,130,134.8z M165.8,134.4h6.6c0.2-1.9,0.4-3.3,0.6-4.8l4.8-0.8v-6.3l-4.9-0.8V114l4.9-0.9v-5.8l-4.9-0.9
	c-0.3-1.8-0.5-3.4-0.7-5h-6.5c-0.2,1.9-0.4,3.5-0.6,5.2h-8.1c-0.2-1.9-0.3-3.5-0.5-5.2h-6.3c-0.2,2-0.4,3.6-0.6,5.2l-5.1,0.7v6
	l5.2,0.8v8l-5.3,0.6v6.4l5.2,0.6l0.6,5h6.2l0.7-5h8.2C165.5,131.3,165.6,132.8,165.8,134.4z"/>
<path d="M165.3,121.9h-8v-8h8V121.9z"/>
</svg>
