<svg xmlns="http://www.w3.org/2000/svg" viewBox="0 0 577.47 655"><defs><style>.cls-1{fill:#fff;}</style></defs><g id="Layer_2" data-name="Layer 2"><g id="Layer_1-2" data-name="Layer 1"><path d="M284.74,0h8C336.91,25.71,381,51.63,425.32,77.06c45.58,26.13,91.63,51.46,136.94,78,5.8,3.4,12,12.15,12,18.47q1.13,152.42.09,304.85c0,6-4.93,14.16-10,17.5-20,13.05-40.86,24.7-61.57,36.6-67.79,39-135.52,78-203.71,116.25-5.77,3.24-16,3.36-22,.45-19.88-9.67-38.82-21.3-58-32.35-52.7-30.33-105.48-60.53-158-91.25C40.33,513.47,20.33,500.08,0,487.26V167.74c13.66-9.56,26.77-20.08,41.1-28.49,33.69-19.76,68.06-38.34,102-57.71C190.38,54.51,237.53,27.19,284.74,0ZM152.28,213c24.14,0,46.74-.32,69.34.07,35.3.61,70.6,2.32,105.9,2.4,28.65.06,57.31-1.49,86-2.53,7.81-.29,12.51,1.21,12.45,10.72q-.46,73.22,0,146.41c0,8.2-3.2,10.93-11.08,10.77-17.29-.34-34.59-.23-51.88-.05-13,.13-21.75,7.95-22.19,19.29-.41,10.8,10,20.48,22.54,20.56,23.05.14,46.11.08,69.17,0,21.06-.05,33.22-12.25,33.24-33.41,0-60.78-.17-121.57.14-182.35.08-14.63-8.22-23-19.8-28.14-6.9-3-15.33-3.61-23.06-3.56q-141.42,1-282.84,2.53c-16.77.17-28.32,12.21-28.34,29.54q-.09,92.5,0,185c0,17.71,11.33,30,28.95,30.27,28.37.43,56.76.25,85.14,0,3.58,0,9.11-1.28,10.34-3.69,3.51-6.92,8-15.09,7-22.1-1.21-9-9.51-14-19.56-14-23.76.08-47.52,0-71.42,0ZM268.77,458c-25.18,0-48.84.14-72.49-.06-11.09-.09-17.52,4.44-18,16-.54,13.78,4.85,21,17.3,21.24q88.8,1.68,177.6,2.63c14,.14,25.63-10.28,25.66-21.12,0-11.4-12.32-21.28-26.84-21.32-20.7-.06-41.4,0-62.56,0V316.56H346.2c-18.29-25.28-34.9-47.87-51.07-70.77-6-8.44-10.21-9-16.22.09-7.92,12-17.17,23-25.39,34.82-7.8,11.17-15,22.76-23.77,36.16,11.48,0,20.23.24,29-.08,7.46-.27,10.16,3,10.13,10.31C268.68,369.16,268.77,411.24,268.77,458Z"/><path class="cls-1" d="M0,487.26c20.33,12.82,40.33,26.21,61.07,38.36,52.47,30.72,105.25,60.92,158,91.25,19.2,11,38.14,22.68,58,32.35,6,2.91,16.23,2.79,22-.45,68.19-38.24,135.92-77.3,203.71-116.25,20.71-11.9,41.59-23.55,61.57-36.6,5.12-3.34,10-11.51,10-17.5q.92-152.43-.09-304.85c0-6.32-6.22-15.07-12-18.47-45.31-26.58-91.36-51.91-136.94-78C381,51.63,336.91,25.71,292.73,0H577.47V655H0Z"/><path class="cls-1" d="M284.74,0c-47.21,27.19-94.36,54.51-141.67,81.54-33.91,19.37-68.28,37.95-102,57.71C26.77,147.66,13.66,158.18,0,167.74V0Z"/><path class="cls-1" d="M152.28,213V380.76c23.9,0,47.66.05,71.42,0,10.05,0,18.35,5,19.56,14,1,7-3.54,15.18-7,22.1-1.23,2.41-6.76,3.65-10.34,3.69-28.38.29-56.77.47-85.14,0-17.62-.26-28.94-12.56-28.95-30.27q0-92.51,0-185c0-17.33,11.57-29.37,28.34-29.54q141.42-1.4,282.84-2.53c7.73-.05,16.16.52,23.06,3.56,11.58,5.12,19.88,13.51,19.8,28.14-.31,60.78-.1,121.57-.14,182.35,0,21.16-12.18,33.36-33.24,33.41-23.06.05-46.12.11-69.17,0-12.56-.08-22.95-9.76-22.54-20.56.44-11.34,9.19-19.16,22.19-19.29,17.29-.18,34.59-.29,51.88.05,7.88.16,11.12-2.57,11.08-10.77q-.34-73.2,0-146.41c.06-9.51-4.64-11-12.45-10.72-28.64,1-57.3,2.59-86,2.53-35.3-.08-70.6-1.79-105.9-2.4C199,212.69,176.42,213,152.28,213Z"/><path class="cls-1" d="M268.77,458c0-46.73-.09-88.81.08-130.88,0-7.32-2.67-10.58-10.13-10.31-8.74.32-17.49.08-29,.08,8.76-13.4,16-25,23.77-36.16,8.22-11.78,17.47-22.85,25.39-34.82,6-9.09,10.26-8.53,16.22-.09,16.17,22.9,32.78,45.49,51.07,70.77H309.47V455.31c21.16,0,41.86-.05,62.56,0,14.52,0,26.87,9.92,26.84,21.32,0,10.84-11.67,21.26-25.66,21.12q-88.8-.84-177.6-2.63c-12.45-.23-17.84-7.46-17.3-21.24.45-11.54,6.88-16.07,18-16C219.93,458.11,243.59,458,268.77,458Z"/></g></g></svg>