<?xml version="1.0" encoding="utf-8"?>
<!-- Generator: Adobe Illustrator 25.2.1, SVG Export Plug-In . SVG Version: 6.00 Build 0)  -->
<svg version="1.1" id="Layer_1" xmlns="http://www.w3.org/2000/svg" xmlns:xlink="http://www.w3.org/1999/xlink" x="0px" y="0px"
	 viewBox="0 0 577.5 655" style="enable-background:new 0 0 577.5 655;" xml:space="preserve">
<g id="Layer_2_1_">
	<g id="Layer_1-2">
		<path d="M284.7,0h8c44.2,25.7,88.3,51.6,132.6,77.1c45.6,26.1,91.6,51.5,136.9,78c5.8,3.4,12,12.1,12,18.5
			c0.8,101.6,0.8,203.2,0.1,304.9c0,6-4.9,14.2-10,17.5c-20,13-40.9,24.7-61.6,36.6c-67.8,39-135.5,78-203.7,116.2
			c-5.8,3.2-16,3.4-22,0.5c-19.9-9.7-38.8-21.3-58-32.3c-52.7-30.3-105.5-60.5-158-91.2C40.3,513.5,20.3,500.1,0,487.3V167.7
			c13.7-9.6,26.8-20.1,41.1-28.5c33.7-19.8,68.1-38.3,102-57.7C190.4,54.5,237.5,27.2,284.7,0z M152.3,213c24.1,0,46.7-0.3,69.3,0.1
			c35.3,0.6,70.6,2.3,105.9,2.4c28.6,0.1,57.3-1.5,86-2.5c7.8-0.3,12.5,1.2,12.5,10.7c-0.3,48.8-0.3,97.6,0,146.4
			c0,8.2-3.2,10.9-11.1,10.8c-17.3-0.3-34.6-0.2-51.9,0c-13,0.1-21.8,8-22.2,19.3c-0.4,10.8,10,20.5,22.5,20.6
			c23,0.1,46.1,0.1,69.2,0c21.1,0,33.2-12.2,33.2-33.4c0-60.8-0.2-121.6,0.1-182.4c0.1-14.6-8.2-23-19.8-28.1
			c-6.9-3-15.3-3.6-23.1-3.6c-94.3,0.7-188.6,1.5-282.8,2.5c-16.8,0.2-28.3,12.2-28.3,29.5c-0.1,61.7-0.1,123.3,0,185
			c0,17.7,11.3,30,28.9,30.3c28.4,0.4,56.8,0.2,85.1,0c3.6,0,9.1-1.3,10.3-3.7c3.5-6.9,8-15.1,7-22.1c-1.2-9-9.5-14-19.6-14
			c-23.8,0.1-47.5,0-71.4,0L152.3,213z M268.8,458c-25.2,0-48.8,0.1-72.5-0.1c-11.1-0.1-17.5,4.4-18,16c-0.5,13.8,4.9,21,17.3,21.2
			c59.2,1.1,118.4,2,177.6,2.6c14,0.1,25.6-10.3,25.7-21.1c0-11.4-12.3-21.3-26.8-21.3c-20.7-0.1-41.4,0-62.6,0V316.6h36.8
			c-18.3-25.3-34.9-47.9-51.1-70.8c-6-8.4-10.2-9-16.2,0.1c-7.9,12-17.2,23-25.4,34.8c-7.8,11.2-15,22.8-23.8,36.2
			c11.5,0,20.2,0.2,29-0.1c7.5-0.3,10.2,3,10.1,10.3C268.7,369.2,268.8,411.2,268.8,458z"/>
	</g>
</g>
</svg>
