<?xml version="1.0" encoding="utf-8"?>
<!-- Generator: Adobe Illustrator 25.2.1, SVG Export Plug-In . SVG Version: 6.00 Build 0)  -->
<svg version="1.1" id="Layer_1" xmlns="http://www.w3.org/2000/svg" xmlns:xlink="http://www.w3.org/1999/xlink" x="0px" y="0px"
	 viewBox="0 0 499.6 253.2" style="enable-background:new 0 0 499.6 253.2;" xml:space="preserve">
<path d="M241.1,0h17.5c0.4,0,0.8,0.1,1.1,0.1c13.2,0.2,26.3,0.9,39.4,2.4c8.5,1,17.1,2.1,25.6,3.3c13.3,2,26.5,4.8,39.5,8.2
	c20.2,5.1,39.8,12.3,58.5,21.2c14.7,7.1,28.6,15.5,41.1,26.1c9.6,8.1,18.1,17.2,24.7,28c5.5,8.9,9.1,18.8,10.4,29.2
	c0.2,1.4,0.3,2.8,0.5,4.2v7.2c-0.1,0.3-0.1,0.6-0.2,0.9c-0.6,8.5-2.8,16.9-6.5,24.6c-5,10.3-11.7,19.7-19.9,27.7
	c-10.7,10.8-23,19.5-36.1,27c-19.2,11-39.5,19-60.7,25.3c-22.7,6.7-46,11.4-69.5,14.1c-12.1,1.4-24.3,2.5-36.5,2.8
	c-10.9,0.3-21.8,0.3-32.7,0.2c-12.8-0.1-25.5-1.1-38.2-2.4c-10.6-1.1-21.1-2.6-31.6-4.4c-15.2-2.6-30.1-6.2-44.9-10.6
	c-18.8-5.5-37-12.9-54.4-22C54.3,205.8,41,197,29.3,185.9c-8.9-8.5-16.6-18-22-29.2c-6.8-14.1-9-28.8-5.6-44.2
	C4.1,102,8.6,92.2,14.9,83.6c7.8-10.9,17.4-20,28.2-28C57,45.4,72.1,36.9,88,30.2c22-9.3,44.9-16.4,68.3-21
	c15.9-3.3,32-5.6,48.2-7.1c11.4-1.1,22.9-1.8,34.4-2C239.6,0.2,240.4,0.1,241.1,0z M106.1,166.6h25.8c6.2,0,12.4-0.4,18.5-1.4
	c10.7-1.6,20.7-6.4,28.6-13.8c15.7-14.5,22-32.6,19.9-53.6c-1.2-11.9-7.7-20.6-18.3-26.2c-7.2-3.6-15.2-5.5-23.2-5.4
	c-20.3-0.2-40.6-0.1-60.8-0.1c-0.7,0-0.8,0.3-0.9,0.9c-0.7,3.5-1.3,7-2,10.5c-3.9,20.2-7.9,40.5-11.8,60.7c-3.9,20-7.8,40-11.7,59.9
	c-0.3,1.6-0.6,3.2-0.9,4.9H99C101.4,190.9,103.7,178.8,106.1,166.6L106.1,166.6z M328.6,66.1c-8.9,45.6-17.7,91.3-26.6,136.9h29.8
	c2.4-12.1,4.7-24.3,7.1-36.4h2.7c12-0.2,23.9,0.5,35.9-0.6c6-0.4,11.9-1.7,17.5-3.9c12.4-5,21.8-13.5,28.6-24.9s9.3-23.6,8.5-36.7
	c-0.3-5.8-2-11.4-5-16.4c-4.6-7.4-11.2-12.1-19.4-14.9c-7-2.2-14.4-3.3-21.8-3.1L328.6,66.1L328.6,66.1z M223,166.6
	c5.1-26.1,10.2-52.2,15.2-78.3c0.2,0,0.3,0,0.5,0c8.4,0,16.8,0,25.2,0c3,0,6,0.4,8.8,1.3c3,1,5.1,2.7,5.9,5.9
	c0.2,1.1,0.4,2.2,0.4,3.4c0.1,3.8-0.8,7.5-1.5,11.2c-3.2,16.3-6.3,32.6-9.5,48.9c-0.5,2.5-1,5.1-1.5,7.7h30c0.1-0.3,0.1-0.5,0.2-0.8
	l3.4-17.3c2.8-14.2,5.5-28.5,8.3-42.7c1-4.9,1.8-9.8,1.6-14.8s-1.4-9.9-4.7-14c-2.9-3.4-6.7-6-10.9-7.4c-6.7-2.3-13.8-3.5-20.9-3.4
	c-10-0.2-19.9-0.1-29.8-0.1c-0.4,0-0.7,0-1.1,0c2.4-12.2,4.7-24.3,7.1-36.4h-29.6c-8.9,45.6-17.7,91.2-26.6,136.8H223z"/>
<path d="M110.3,145c0.6-3.2,1.2-6.2,1.8-9.3l8.3-42.8c0.3-1.4,0.6-2.9,0.8-4.3c0.1-0.6,0.3-0.9,1-0.9c7.9,0,15.9,0,23.8,0.1
	c4.6,0,9.1,0.9,13.4,2.6c5.1,2.1,7.8,6.1,8.5,11.4c0.9,6.3-0.2,12.4-1.9,18.4c-1.2,5.1-3.5,9.9-6.7,14c-3.8,4.8-8.9,7.4-14.7,9
	c-5.3,1.3-10.7,1.9-16.1,1.8h-17.6L110.3,145z"/>
<path d="M343.2,145c0.7-3.7,1.4-7.4,2.1-11c2.3-11.6,4.5-23.3,6.8-34.9c0.7-3.5,1.4-7,2-10.4c0.1-0.6,0.3-0.9,1.1-0.9
	c7.9,0.1,15.7,0,23.6,0.1c4,0.1,7.9,0.7,11.7,1.9c6.5,2.1,10.1,6.6,10.5,13.4c0.7,10-1.7,20-6.9,28.6c-3.8,6.2-9.5,9.7-16.4,11.5
	c-5.3,1.3-10.8,1.9-16.3,1.8H344C343.7,145,343.5,145,343.2,145z"/>
</svg>
