<svg id="Layer_1" data-name="Layer 1" xmlns="http://www.w3.org/2000/svg" viewBox="0 0 287.91 287.82"><defs><style>.cls-1{fill:#fff;}</style></defs><title>rider</title><path d="M163,253H450.91V540.85H163ZM267.13,414.71h33.42l-30.32-44.53a11,11,0,0,1,1.75-1.12,36.93,36.93,0,0,0,17.11-13.41c7.27-10.19,9.29-21.29,7-33.59-3.75-20.16-17.94-31.47-38.53-32.77s-41.31-.3-62-.28c-1.44,0-2.87.18-4.19.27V414.73h27.72V375.25h21.74Zm46.1.29h5.28c15.33,0,30.66.07,46-.05a71.78,71.78,0,0,0,12.78-1c16.33-3.1,30.3-10.56,40.23-24.12,12.26-16.75,15.47-35.69,10-55.49-7.66-27.86-32-44.91-59.75-45.29-16.49-.22-33,0-49.48,0h-5.08Zm-122,87.65H296.77V483.27H191.22Z" transform="translate(-163 -253.03)"/><path class="cls-1" d="M267.13,414.71l-26.28-39.46H219.11v39.48H191.39V289.28c1.32-.09,2.75-.27,4.19-.27,20.66,0,41.39-1,62,.28s34.78,12.61,38.53,32.77c2.3,12.3.28,23.4-7,33.59A36.93,36.93,0,0,1,272,369.06a11,11,0,0,0-1.75,1.12l30.32,44.53ZM219.24,350h7.27c7.5,0,15.08.68,22.48-.17,10.75-1.25,19.25-6.51,18.12-19.84-.62-7.2-3.35-11.66-10.76-14-12.13-3.8-24.57-1.3-37.11-2.08Z" transform="translate(-163 -253.03)"/><path class="cls-1" d="M313.23,415V289h5.08c16.49,0,33-.18,49.48,0,27.71.38,52.09,17.43,59.75,45.29,5.44,19.8,2.23,38.74-10,55.49-9.93,13.56-23.9,21-40.23,24.12a71.78,71.78,0,0,1-12.78,1c-15.33.12-30.66.05-46,.05Zm28.14-101v75c8.36,0,16.34-.14,24.32,0C378,389.3,387,383.28,394,373.87c6.46-8.64,7-18.6,6-28.85-1.7-17-15.49-29.35-32.39-30.88C359,313.37,350.34,314,341.37,314Z" transform="translate(-163 -253.03)"/><path class="cls-1" d="M191.22,502.65V483.27H296.77v19.38Z" transform="translate(-163 -253.03)"/><path d="M219.24,350V313.94c12.54.78,25-1.72,37.11,2.08,7.41,2.31,10.14,6.77,10.76,14,1.13,13.33-7.37,18.59-18.12,19.84-7.4.85-15,.17-22.48.17Z" transform="translate(-163 -253.03)"/><path d="M341.37,314c9,0,17.67-.64,26.25.13C384.52,315.67,398.31,328,400,345c1,10.25.45,20.21-6,28.85C387,383.28,378,389.3,365.69,389c-8-.17-16,0-24.32,0Z" transform="translate(-163 -253.03)"/></svg>