<?xml version="1.0" encoding="utf-8"?>
<!-- Generator: Adobe Illustrator 25.2.1, SVG Export Plug-In . SVG Version: 6.00 Build 0)  -->
<svg version="1.1" id="Layer_1" xmlns="http://www.w3.org/2000/svg" xmlns:xlink="http://www.w3.org/1999/xlink" x="0px" y="0px"
	 viewBox="0 0 287.9 287.8" style="enable-background:new 0 0 287.9 287.8;" xml:space="preserve">
<path d="M0,0h287.9v287.8H0V0z M104.1,161.7h33.4l-30.3-44.5c0.5-0.4,1.1-0.8,1.8-1.1c6.9-2.7,12.9-7.3,17.1-13.4
	c7.3-10.2,9.3-21.3,7-33.6c-3.8-20.2-17.9-31.5-38.5-32.8S53.2,36,32.6,36c-1.4,0-2.9,0.2-4.2,0.3v125.5h27.7v-39.5h21.7
	L104.1,161.7z M150.2,162h5.3c15.3,0,30.7,0.1,46,0c4.3,0,8.6-0.3,12.8-1c16.3-3.1,30.3-10.6,40.2-24.1c12.3-16.8,15.5-35.7,10-55.5
	c-7.7-27.9-32-44.9-59.8-45.3c-16.5-0.2-33,0-49.5,0h-5.1L150.2,162z M28.2,249.6h105.5v-19.4H28.2L28.2,249.6z"/>
<path d="M56.2,97V60.9c12.5,0.8,25-1.7,37.1,2.1c7.4,2.3,10.1,6.8,10.8,14c1.1,13.3-7.4,18.6-18.1,19.8C78.6,97.7,71,97,63.5,97
	L56.2,97z"/>
<path d="M178.4,61c9,0,17.7-0.6,26.2,0.1C221.5,62.6,235.3,75,237,92c1,10.2,0.5,20.2-6,28.9c-7,9.4-16,15.4-28.3,15.1
	c-8-0.2-16,0-24.3,0V61z"/>
</svg>
