<svg id="Layer_1" data-name="Layer 1" xmlns="http://www.w3.org/2000/svg" viewBox="0 0 600 318"><defs><style>.cls-1{fill:#fff;}</style></defs><title>SDL</title><path class="cls-1" d="M284,556H7V430c1.55.6,3.12,1.17,4.65,1.81a156.69,156.69,0,0,0,77.14,11.32,89.45,89.45,0,0,0,28.39-7.29c22.52-10.19,38.42-29.76,35.16-59.9-1.64-15.19-8.79-26.58-21.76-34.46-11.25-6.84-23.72-10.33-36.37-13.35-8.24-2-16.53-3.78-24.63-6.22a28.7,28.7,0,0,1-9.94-5.42c-5.25-4.44-5.75-11.33-2.09-17.14,3.25-5.16,8.39-7.51,13.84-9.15,9.62-2.87,19.43-2.39,29.14-.61,14,2.56,26.5,8.62,37.86,17.1,1.91,1.43,3.73,2.82,6.57,1.48V266.24c-5.34-1.83-10.46-3.76-15.69-5.33C113,256,96.42,254.28,79.48,254.69a92.52,92.52,0,0,0-34.93,7.22c-10.07,4.34-19,10.31-26,18.9-9,11.12-11.69,24.06-10.31,38,1.53,15.62,8.22,28.22,21.8,36.8,8.55,5.4,17.87,8.84,27.56,11.34s19.48,4.4,29.11,7a56.32,56.32,0,0,1,11.8,5.15c8.81,4.77,9.44,18.54.66,24.34A35.55,35.55,0,0,1,89.86,408c-8.07,2.39-16.44,2.56-24.73,1.63a97.46,97.46,0,0,1-49.6-20.48c-2.64-2-5.23-3.33-8.53-3.14V238H492l4.88,3c.29.37.51.86.88,1.08,2.86,1.7,5.78,3.3,8.62,5s5.63,3.54,8.38,5.42,5.68,4.07,8.51,6.11c.34,4.51,4.93,3.33,7.13,5.36.24.22.49.45.75.66,3,2.61,6.06,5.2,9.07,7.83,1.52,1.32,2.73,2.7,2.67,5.05a3.51,3.51,0,0,0,2.51,2.41c2.62-.1,4,1.53,5.39,3.11,3.31,3.72,6.52,7.53,9.62,11.13-1.49,6.86-.68,8,6.44,9.24,1.83,3.11,3.88,6.34,5.68,9.7,2,3.65,3.65,7.44,5.43,11.11-5.77,4.59-5.24,11.34,4.52,13.35,2.33,9.21,4.26,18.55,3.63,28.19-4.77,1.15-8.33,3.08-9.08,8-.92,6,3.59,8.35,7.8,10.82-2.06,10.2-4.89,19.88-9.6,29.17-6.67-1.16-12.67-.12-16,6.26-2.92,5.65-.55,10.55,3.89,14.62a161.36,161.36,0,0,1-22.86,25.92c-5-2.27-9.58-2.73-13.74,1.1-3.92,3.61-2.68,7.74-1,12.07-5.95,4.2-11.73,8.41-17.65,12.42-4,2.7-8.16,5.13-12.27,7.69-3.55-2.81-7.25-3.61-11.31-1.68-4.38,2.09-4.46,6.16-4.43,10.29-3.9,1.87-7.59,3.75-11.38,5.43-7.14,3.15-14.33,6.18-21.63,9.31-2.9-2.52-5.83-4.51-9.92-3.24-4.36,1.35-5.56,4.79-6.2,9.13-11.52,3.22-23,6.42-34.55,9.7-1.78.5-3.06,0-4.6-.93-3.8-2.3-7.41-1.66-9.39,2.05a5.11,5.11,0,0,1-4.26,2.8q-16.46,2.76-33,5.28a6.79,6.79,0,0,1-5.62-1.08c-2.54-1.91-4.9-1.45-7.12.85a5.83,5.83,0,0,1-4.23,2.15c-11.62.48-23.23,1-34.85,1.58a6.4,6.4,0,0,1-5.37-1.81c-1.9-1.91-4.22-1.91-5.69.12-1.89,2.6-4,2.29-6.56,2-2.14-.26-4.32-.2-6.47-.3-9.13-.45-18.25-.85-27.37-1.42a5.23,5.23,0,0,1-3.32-1.58c-1.8-2-3.44-2.1-5.66-.73a6.8,6.8,0,0,1-4.11,1.07c-10.85-1.49-21.65-3.33-32.52-4.68-2.74-.34-3.47-3-5.69-3.53s-3.87,1.83-6.59,1c-9.57-2.8-19.32-4.94-28.94-7.56-2.38-.66-4.52-2.21-7.45-3.69-1.84,1-4.43.19-7.1-.71A315.41,315.41,0,0,1,94,504.12c-1.41-.74-2.89-1.35-4.33-2A5.56,5.56,0,0,0,92,504.47a361.68,361.68,0,0,0,68,29.65,426.83,426.83,0,0,0,66.45,15.66c18.05,2.75,36.18,4.89,54.47,5.34A13.4,13.4,0,0,1,284,556ZM160.49,440.14h5.8c18.66,0,37.32.2,56-.08a217.08,217.08,0,0,0,27.81-1.84c36-5.17,58.63-26.44,69.71-60.37,5.32-16.27,5.4-33.14,2.07-49.85-5.88-29.49-22.46-50.71-50.25-62.66-13.7-5.89-28.43-6.76-43-7.09-21.15-.48-42.32-.13-63.48-.12-1.46,0-2.91.13-4.62.21ZM335.41,258.23V439.75c8.14.93,118.43.57,122-.37.86-7.57.57-29.72-.56-33.55H381.76V291c0-5.5.05-11,0-16.49s.27-10.85-.24-16.31Z" transform="translate(-7 -238)"/><path d="M7,386c3.3-.19,5.89,1.1,8.53,3.14a97.46,97.46,0,0,0,49.6,20.48c8.29.93,16.66.76,24.73-1.63a35.55,35.55,0,0,0,9.34-4.53c8.78-5.8,8.15-19.57-.66-24.34A56.32,56.32,0,0,0,86.74,374c-9.63-2.62-19.45-4.53-29.11-7s-19-5.94-27.56-11.34C16.49,347,9.8,334.43,8.27,318.81c-1.38-13.94,1.34-26.88,10.31-38,6.94-8.59,15.9-14.56,26-18.9a92.52,92.52,0,0,1,34.93-7.22c16.94-.41,33.56,1.33,49.79,6.22,5.23,1.57,10.35,3.5,15.69,5.33v41.93c-2.84,1.34-4.66-.05-6.57-1.48-11.36-8.48-23.86-14.54-37.86-17.1-9.71-1.78-19.52-2.26-29.14.61-5.45,1.64-10.59,4-13.84,9.15-3.66,5.81-3.16,12.7,2.09,17.14a28.7,28.7,0,0,0,9.94,5.42c8.1,2.44,16.39,4.26,24.63,6.22,12.65,3,25.12,6.51,36.37,13.35,13,7.88,20.12,19.27,21.76,34.46,3.26,30.14-12.64,49.71-35.16,59.9a89.45,89.45,0,0,1-28.39,7.29,156.69,156.69,0,0,1-77.14-11.32c-1.53-.64-3.1-1.21-4.65-1.81Z" transform="translate(-7 -238)"/><path class="cls-1" d="M607,390V556H326a10.94,10.94,0,0,1,2.56-.88c5-.37,9.93-.66,14.9-.93a418.26,418.26,0,0,0,54.27-7c39.31-7.36,77-19.51,112.23-38.59,24.31-13.15,46.45-29.21,64.61-50.3,15.59-18.1,26.75-38.44,31-62.22C605.91,394,606.51,392,607,390Z" transform="translate(-7 -238)"/><path d="M607,390c-.49,2-1.09,4-1.46,6.07-4.22,23.78-15.38,44.12-31,62.22-18.16,21.09-40.3,37.15-64.61,50.3-35.25,19.08-72.92,31.23-112.23,38.59a418.26,418.26,0,0,1-54.27,7c-5,.27-9.94.56-14.9.93A10.94,10.94,0,0,0,326,556H284a13.4,13.4,0,0,0-3.14-.88c-18.29-.45-36.42-2.59-54.47-5.34a426.83,426.83,0,0,1-66.45-15.66A361.68,361.68,0,0,1,92,504.47a5.56,5.56,0,0,1-2.36-2.37c1.44.67,2.92,1.28,4.33,2a315.41,315.41,0,0,0,46.39,19.49c2.67.9,5.26,1.75,7.1.71,2.93,1.48,5.07,3,7.45,3.69,9.62,2.62,19.37,4.76,28.94,7.56,2.72.8,4.35-1.57,6.59-1s2.95,3.19,5.69,3.53c10.87,1.35,21.67,3.19,32.52,4.68a6.8,6.8,0,0,0,4.11-1.07c2.22-1.37,3.86-1.32,5.66.73a5.23,5.23,0,0,0,3.32,1.58c9.12.57,18.24,1,27.37,1.42,2.15.1,4.33,0,6.47.3,2.52.3,4.67.61,6.56-2,1.47-2,3.79-2,5.69-.12a6.4,6.4,0,0,0,5.37,1.81c11.62-.54,23.23-1.1,34.85-1.58a5.83,5.83,0,0,0,4.23-2.15c2.22-2.3,4.58-2.76,7.12-.85a6.79,6.79,0,0,0,5.62,1.08q16.5-2.5,33-5.28a5.11,5.11,0,0,0,4.26-2.8c2-3.71,5.59-4.35,9.39-2.05,1.54.93,2.82,1.43,4.6.93,11.51-3.28,23-6.48,34.55-9.7.64-4.34,1.84-7.78,6.2-9.13,4.09-1.27,7,.72,9.92,3.24,7.3-3.13,14.49-6.16,21.63-9.31,3.79-1.68,7.48-3.56,11.38-5.43,0-4.13.05-8.2,4.43-10.29,4.06-1.93,7.76-1.13,11.31,1.68,4.11-2.56,8.29-5,12.27-7.69,5.92-4,11.7-8.22,17.65-12.42-1.7-4.33-2.94-8.46,1-12.07,4.16-3.83,8.74-3.37,13.74-1.1a161.36,161.36,0,0,0,22.86-25.92c-4.44-4.07-6.81-9-3.89-14.62,3.31-6.38,9.31-7.42,16-6.26,4.71-9.29,7.54-19,9.6-29.17-4.21-2.47-8.72-4.81-7.8-10.82.75-4.88,4.31-6.81,9.08-8,.63-9.64-1.3-19-3.63-28.19-9.76-2-10.29-8.76-4.52-13.35-1.78-3.67-3.48-7.46-5.43-11.11-1.8-3.36-3.85-6.59-5.68-9.7-7.12-1.24-7.93-2.38-6.44-9.24-3.1-3.6-6.31-7.41-9.62-11.13-1.41-1.58-2.77-3.21-5.39-3.11a3.51,3.51,0,0,1-2.51-2.41c.06-2.35-1.15-3.73-2.67-5.05-3-2.63-6.05-5.22-9.07-7.83-.26-.21-.51-.44-.75-.66-2.2-2-6.79-.85-7.13-5.36-2.83-2-5.63-4.14-8.51-6.11s-5.55-3.68-8.38-5.42-5.76-3.33-8.62-5c-.37-.22-.59-.71-.88-1.08,4.46,2.12,9,4,13.35,6.4,24.19,13.31,46.35,29.27,64.49,50.32,15.58,18.09,26.62,38.48,30.85,62.22.37,2.05.95,4.07,1.43,6.1Z" transform="translate(-7 -238)"/><path class="cls-1" d="M607,366c-.48-2-1.06-4.05-1.43-6.1-4.23-23.74-15.27-44.13-30.85-62.22-18.14-21.05-40.3-37-64.49-50.32-4.31-2.38-8.89-4.28-13.35-6.4L492,238H607Z" transform="translate(-7 -238)"/><path d="M160.49,440.14V258.34c1.71-.08,3.16-.2,4.62-.21,21.16,0,42.33-.36,63.48.12,14.59.33,29.32,1.2,43,7.09,27.79,12,44.37,33.17,50.25,62.66,3.33,16.71,3.25,33.58-2.07,49.85-11.08,33.93-33.67,55.2-69.71,60.37a217.08,217.08,0,0,1-27.81,1.84c-18.66.28-37.32.08-56,.08Zm46.63-34.52c7.54,0,14.52.14,21.49-.05a53.3,53.3,0,0,0,10.85-1.23c15.92-3.82,26.66-13.69,32.51-28.86,4.78-12.42,5-25.33,3.51-38.35a53.34,53.34,0,0,0-6.38-20.34c-8-14.22-20.26-22.26-36.49-23.49-8.38-.64-16.85-.11-25.49-.11Z" transform="translate(-7 -238)"/><path d="M335.41,258.23h46.1c.51,5.46.18,10.89.24,16.31s0,11,0,16.49v114.8h75.05c1.13,3.83,1.42,26,.56,33.55-3.53.94-113.82,1.3-122,.37Z" transform="translate(-7 -238)"/><path class="cls-1" d="M207.12,405.62V293.19c8.64,0,17.11-.53,25.49.11,16.23,1.23,28.46,9.27,36.49,23.49a53.34,53.34,0,0,1,6.38,20.34c1.51,13,1.27,25.93-3.51,38.35-5.85,15.17-16.59,25-32.51,28.86a53.3,53.3,0,0,1-10.85,1.23C221.64,405.76,214.66,405.62,207.12,405.62Z" transform="translate(-7 -238)"/></svg>