<?xml version="1.0" encoding="utf-8"?>
<!-- Generator: Adobe Illustrator 25.2.1, SVG Export Plug-In . SVG Version: 6.00 Build 0)  -->
<svg version="1.1" id="Layer_1" xmlns="http://www.w3.org/2000/svg" xmlns:xlink="http://www.w3.org/1999/xlink" x="0px" y="0px"
	 viewBox="0 0 600 318" style="enable-background:new 0 0 600 318;" xml:space="preserve">
<style type="text/css">
	.st0{fill:#FFFFFF;}
</style>
<path d="M0,148c3.3-0.2,5.9,1.1,8.5,3.1c14.3,11.3,31.5,18.4,49.6,20.5c8.3,0.9,16.7,0.8,24.7-1.6c3.3-1,6.5-2.6,9.3-4.5
	c8.8-5.8,8.2-19.6-0.7-24.3c-3.7-2.2-7.7-3.9-11.8-5.1c-9.6-2.6-19.5-4.5-29.1-7s-19-5.9-27.6-11.3C9.5,109,2.8,96.4,1.3,80.8
	c-1.4-13.9,1.3-26.9,10.3-38c6.9-8.6,15.9-14.6,26-18.9c11.1-4.6,22.9-7.1,34.9-7.2c16.9-0.4,33.6,1.3,49.8,6.2
	c5.2,1.6,10.4,3.5,15.7,5.3v41.9c-2.8,1.3-4.7,0-6.6-1.5c-11.4-8.5-23.9-14.5-37.9-17.1c-9.7-1.8-19.5-2.3-29.1,0.6
	c-5.4,1.6-10.6,4-13.8,9.1c-3.7,5.8-3.2,12.7,2.1,17.1c2.9,2.4,6.3,4.3,9.9,5.4c8.1,2.4,16.4,4.3,24.6,6.2
	c12.7,3,25.1,6.5,36.4,13.4c13,7.9,20.1,19.3,21.8,34.5c3.3,30.1-12.6,49.7-35.2,59.9c-9,4-18.6,6.4-28.4,7.3
	C55.6,207.9,29,204,4.7,193.8c-1.5-0.6-3.1-1.2-4.7-1.8L0,148z"/>
<path d="M600,152c-0.5,2-1.1,4-1.5,6.1c-4.2,23.8-15.4,44.1-31,62.2c-18.2,21.1-40.3,37.1-64.6,50.3
	c-35.2,19.1-72.9,31.2-112.2,38.6c-17.9,3.5-36,5.9-54.3,7c-5,0.3-9.9,0.6-14.9,0.9c-0.9,0.2-1.7,0.5-2.5,0.9h-42
	c-1-0.4-2.1-0.7-3.1-0.9c-18.3-0.5-36.4-2.6-54.5-5.3c-22.5-3.4-44.8-8.7-66.4-15.7c-23.6-7.5-46.4-17.5-67.9-29.6
	c-1-0.5-1.8-1.4-2.4-2.4c1.4,0.7,2.9,1.3,4.3,2c14.9,7.7,30.4,14.2,46.4,19.5c2.7,0.9,5.3,1.8,7.1,0.7c2.9,1.5,5.1,3,7.4,3.7
	c9.6,2.6,19.4,4.8,28.9,7.6c2.7,0.8,4.4-1.6,6.6-1s2.9,3.2,5.7,3.5c10.9,1.3,21.7,3.2,32.5,4.7c1.4,0.1,2.9-0.3,4.1-1.1
	c2.2-1.4,3.9-1.3,5.7,0.7c0.9,0.9,2.1,1.5,3.3,1.6c9.1,0.6,18.2,1,27.4,1.4c2.1,0.1,4.3,0,6.5,0.3c2.5,0.3,4.7,0.6,6.6-2
	c1.5-2,3.8-2,5.7-0.1c1.4,1.4,3.4,2.1,5.4,1.8c11.6-0.5,23.2-1.1,34.9-1.6c1.7-0.1,3.2-0.9,4.2-2.2c2.2-2.3,4.6-2.8,7.1-0.8
	c1.6,1.2,3.7,1.6,5.6,1.1c11-1.7,22-3.4,33-5.3c1.8-0.1,3.4-1.2,4.3-2.8c2-3.7,5.6-4.3,9.4-2c1.5,0.9,2.8,1.4,4.6,0.9
	c11.5-3.3,23-6.5,34.5-9.7c0.6-4.3,1.8-7.8,6.2-9.1c4.1-1.3,7,0.7,9.9,3.2c7.3-3.1,14.5-6.2,21.6-9.3c3.8-1.7,7.5-3.6,11.4-5.4
	c0-4.1,0-8.2,4.4-10.3c4.1-1.9,7.8-1.1,11.3,1.7c4.1-2.6,8.3-5,12.3-7.7c5.9-4,11.7-8.2,17.6-12.4c-1.7-4.3-2.9-8.5,1-12.1
	c4.2-3.8,8.7-3.4,13.7-1.1c8.5-7.8,16.2-16.5,22.9-25.9c-4.4-4.1-6.8-9-3.9-14.6c3.3-6.4,9.3-7.4,16-6.3c4.7-9.3,7.5-19,9.6-29.2
	c-4.2-2.5-8.7-4.8-7.8-10.8c0.8-4.9,4.3-6.8,9.1-8c0.6-9.6-1.3-19-3.6-28.2c-9.8-2-10.3-8.8-4.5-13.4c-1.8-3.7-3.5-7.5-5.4-11.1
	c-1.8-3.4-3.8-6.6-5.7-9.7c-7.1-1.2-7.9-2.4-6.4-9.2c-3.1-3.6-6.3-7.4-9.6-11.1c-1.4-1.6-2.8-3.2-5.4-3.1c-1.2-0.3-2.2-1.2-2.5-2.4
	c0.1-2.4-1.2-3.7-2.7-5c-3-2.6-6-5.2-9.1-7.8c-0.3-0.2-0.5-0.4-0.8-0.7c-2.2-2-6.8-0.9-7.1-5.4c-2.8-2-5.6-4.1-8.5-6.1
	s-5.5-3.7-8.4-5.4s-5.8-3.3-8.6-5c-0.4-0.2-0.6-0.7-0.9-1.1c4.5,2.1,9,4,13.4,6.4c24.2,13.3,46.4,29.3,64.5,50.3
	c15.6,18.1,26.6,38.5,30.8,62.2c0.4,2,1,4.1,1.4,6.1L600,152z"/>
<path class="st0" d="M600,128c-0.5-2-1.1-4-1.4-6.1c-4.2-23.7-15.3-44.1-30.8-62.2c-18.1-21-40.3-37-64.5-50.3
	c-4.3-2.4-8.9-4.3-13.4-6.4L485,0h115V128z"/>
<path d="M153.5,202.1V20.3c1.7-0.1,3.2-0.2,4.6-0.2c21.2,0,42.3-0.4,63.5,0.1c14.6,0.3,29.3,1.2,43,7.1c27.8,12,44.4,33.2,50.2,62.7
	c3.3,16.7,3.2,33.6-2.1,49.9c-11.1,33.9-33.7,55.2-69.7,60.4c-9.2,1.2-18.5,1.8-27.8,1.8c-18.7,0.3-37.3,0.1-56,0.1L153.5,202.1z
	 M200.1,167.6c7.5,0,14.5,0.1,21.5,0c3.6,0,7.3-0.4,10.9-1.2c15.9-3.8,26.7-13.7,32.5-28.9c4.8-12.4,5-25.3,3.5-38.4
	c-0.7-7.1-2.9-14.1-6.4-20.3c-8-14.2-20.3-22.3-36.5-23.5c-8.4-0.6-16.9-0.1-25.5-0.1L200.1,167.6z"/>
<path d="M328.4,20.2h46.1c0.5,5.5,0.2,10.9,0.2,16.3s0,11,0,16.5v114.8h75c1.1,3.8,1.4,26,0.6,33.5c-3.5,0.9-113.8,1.3-122,0.4
	L328.4,20.2z"/>
</svg>
