<?xml version="1.0" encoding="utf-8"?>
<!-- Generator: Adobe Illustrator 25.2.1, SVG Export Plug-In . SVG Version: 6.00 Build 0)  -->
<svg version="1.1" id="Layer_1" xmlns="http://www.w3.org/2000/svg" xmlns:xlink="http://www.w3.org/1999/xlink" x="0px" y="0px"
	 viewBox="0 0 600 591.9" style="enable-background:new 0 0 600 591.9;" xml:space="preserve">
<style type="text/css">
	.st0{fill:#FFFFFF;}
</style>
<path d="M0,484.9c0.7-1.1,1.3-2.3,1.8-3.5c1-3.8,4-6.8,7.9-7.6c4.2-1.1,8.4-1.8,12.7-2.1c8.3-0.3,14.3,3.7,17.7,11.4
	c2.7,6.1,5.3,12.2,7.9,18.3c6.3,14.7,12.7,29.3,19,44c0.5,1.2,1,2.3,1.9,4.2c0.9-1.7,1.6-2.8,2.1-3.9c9-20.2,18-40.4,27-60.6
	c0.7-1.7,1.5-3.3,2.4-4.9c2.9-4.8,7.9-7.9,13.5-8.4c5.5-0.5,11,0.2,16.2,2.3c4.1,1.5,6.6,4.4,7.2,8.8c0.3,1.8,0.5,3.6,0.5,5.5
	c0,24,0,48,0,72c0,1.3-0.2,2.6-0.3,4.1h-19.4v-75.9l-0.7-0.2c-0.4,0.8-1,1.6-1.3,2.5c-9.3,20.8-18.7,41.6-28,62.4
	c-0.8,1.8-1.7,3.6-2.8,5.3c-2.1,3.5-5.6,5.9-9.6,6.5c-2.3,0.4-4.6,0.6-6.9,0.7c-8.3,0.1-14.2-3.6-17.6-11.4
	c-9.1-20.9-18.5-41.6-27.9-62.4c-0.5-1.3-1.2-2.4-2.2-3.4v75.1c-4,1.2-16.7,1.3-21,0.2V484.9z"/>
<path d="M155,591.9c-0.3-4.1-0.5-8.2-0.8-12.8c2.3-0.1,4.1-0.2,5.9-0.2c18,0,36,0,54,0c2.7,0,5.3-0.3,7.9-1c4.6-1.3,6.1-3.6,6.1-8.4
	c0-1.6,0-3.3,0-5.2c-1.6-0.1-2.9-0.3-4.2-0.3c-12.5,0-25,0-37.5,0c-6,0.2-12-0.8-17.6-3c-3.4-1.4-6.5-3.2-9.4-5.4
	c-3.4-2.5-5.4-6.6-5.2-10.8c0.1-14,0.1-28,0.1-42c0.1-0.5,0.2-1.1,0.4-1.6h9.1h9.9c0.1,1.7,0.3,3.1,0.3,4.5c0,12.3,0,24.7,0,37
	c0,5.8,2,8.2,7.6,9.2c1.3,0.2,2.7,0.3,4,0.3c13.5,0,27,0,40.5,0c0.5,0,1-0.1,2.1-0.3c0.2-5.5,0.1-11.1,0.1-16.7s0-11,0-16.5V501
	c6.6-0.3,13-0.1,19.8-0.1v5.4c0,20.8-0.2,41.6,0.1,62.5c0.1,9.6-4.1,15.9-12.7,19.4c-3.6,1.5-7.5,2.5-11.2,3.8L155,591.9z"/>
<path d="M600,552.9c-0.8,1.4-1.6,2.8-2.3,4.3c-2.9,6.1-9.5,9.4-16.1,8c-7.9-1.6-12.9-9.3-11.3-17.2c1.1-5.5,5.2-9.8,10.6-11.2
	c6.7-1.7,13.7,1.6,16.7,7.8c0.7,1.5,1.6,2.8,2.4,4.2V552.9z M584.4,539.6c-6.2,0-11.2,4.9-11.2,11.1c0,0.1,0,0.3,0,0.4
	c-0.1,6.3,4.8,11.4,11.1,11.6c6.3,0.1,11.4-4.8,11.6-11.1c0-0.2,0-0.4,0-0.7c0.1-6.2-5-11.3-11.2-11.4
	C584.5,539.6,584.5,539.6,584.4,539.6z"/>
<path d="M231.6,309.3c-0.6,2.1-1,3.3-1.2,4.5c-1.4,8.9-2.8,17.8-4.3,26.6c-0.4,3-1.1,5.9-2,8.7c-4.3,13-18.1,18-29.9,11
	c-5.1-3-9-7.4-12.5-12c-9.7-12.9-15.3-27.6-18.5-43.3c-5.4-26.1-4.3-53,3.2-78.6c1-3.4,1.6-6.8,2.6-10.2c1.6-5.8,3.2-11.5,5.1-17.1
	c0.2-2.8-1.3-5-3.3-6.8c-5.3-4.6-8.6-10.5-12.1-16.4c-6.4-11.1-11.7-22.8-15.7-35c-3.8-11.3-7.6-22.7-11.2-34.2
	c-2.4-7.6-6.7-14.1-11.3-20.4c-6.5-8.9-13.3-17.5-19.9-26.3c-5.3-7.1-9.8-14.7-11.6-23.6c-3.5-16.8,7.1-32,24-34.5
	c8-1.2,15.6,0.5,23.1,2.8c17.1,5.4,33.1,13,46.9,24.8c1.4,1.2,2.8,2.3,4.3,3.4c2,1.5,4.4,2.4,6.9,2.4c6.5,0.2,13,0.7,19.5,1.1
	c0.3,0,0.7,0,1,0.1c17,3.5,33.9,6.9,49.1,16c25.1,15,49,31.6,70.4,51.6c24.8,23.2,45.1,49.9,62.2,79.1c3,5.2,5.5,10.7,7.6,16.3
	c10,25.8,21.7,50.8,34.1,75.6c2.8,5.7,5.5,11.4,8.2,17.1c1.3,2.7,2.7,5.3,4,8c2.8,5.7,7.1,9,13.2,11.3c26.2,9.6,50.5,23.5,72.2,41.1
	c4.8,3.9,9.5,7.9,14.5,11.5c10.7,7.8,18.9,17.7,26.7,28.2c0.8,1.1,1,2.6,1.7,4.2c-10.3,3.2-19.9,6.3-30.1,7.3
	c-9.8,0.8-19.5,2.5-29,5.2c-4.9,1.5-10,2.4-15.3,3.7c0.7,3.2,2.5,6.1,5.1,8.1c4.7,3.9,9.6,7.7,14.7,11.2c8.5,5.8,17.5,11,25.8,17
	c9.8,7.3,18.7,15.7,26.4,25.2c3.1,3.7,6.3,7.3,9.8,10.7c3.2,3.1,5.8,6.4,7.2,10.6c0.7,1.8,1.5,3.5,2.4,5.2c-3-0.7-4.5-2.5-6.1-3.9
	c-10.5-9.5-22-17.9-34.3-24.8c-7.3-4-14.9-7.4-22.5-10.9c-13.6-6.2-25.6-14.9-36.9-24.5c-8.3-6.9-14.7-15.7-18.6-25.6
	c-0.7-1.7-1.6-3.3-2.5-5.1c0.7-3.3,3.2-4.7,6.1-5.8c21.9-8.7,45.3-12.8,68.9-12.1c1.5,0,3,0,4.5,0c0.3,0,0.6-0.3,1.4-0.7
	c-1-1.7-2.1-3.2-3.4-4.7c-2-2-4.2-3.8-6.5-5.4c-13.5-9.2-27-18.3-40.5-27.5c-7.2-4.9-15-8.7-23.2-11.4c-9-2.9-18-6.1-26.9-9.2
	l-0.5-0.1c-10-2.6-17.6-8.3-22.3-17.8c-2.7-5.5-6-10.8-8.6-16.3c-10.7-22.8-21.2-45.6-31.7-68.4c-1.3-2.5-2.3-5.1-3.3-7.8
	c-6.5-20.2-17.6-38-29.6-55.3c-23.5-33.8-53.6-62.4-88.6-84c-13.8-8.6-28.1-16-43.6-20.8c-5.3-1.5-10.7-2.6-16.1-3.1
	c-8.9-1-17.9-1.4-26.9-2.1c-3.7-0.3-6.4-2.7-9.1-4.8c-4.4-3.3-8.5-7-13.2-9.9c-11-6.9-22.8-12.4-35.1-16.6
	c-3.3-1.1-6.7-1.8-10.2-2.1c-9-0.7-13,7.1-11.2,13.7c2.1,7.5,6.2,13.9,10.9,20.1c5.4,7.2,10.9,14.3,16.3,21.5
	c7.8,10.4,13.7,22.1,17.6,34.6c3.5,10.9,7,21.9,10.7,32.8c3.1,9.5,7.4,18.6,12.8,27c2.9,4.1,6,8,9.2,11.8c1.6,1.9,3.5,3.6,5,5.6
	c2.7,3.6,4.1,7.7,3.1,12.2c-0.9,4.2-1.9,8.5-3.2,12.6c-2.6,8.2-5.9,16.3-8.1,24.7c-4,15.5-4.7,31.2-3.3,47.1
	c0.8,9,1.9,17.9,4.7,26.5c2.5,7.7,5.7,15.3,9,22.7c1.7,4,4.6,7.5,8.3,9.8c1.8,1.1,3.6,2.5,6.6,1.5c0.2-1.4,0.5-2.9,0.8-4.5
	c1.7-11.9,3.1-23.8,5.2-35.6c1.7-9.6,6-18.5,12.5-25.7c2.7-3.1,5.1-6.4,8.2-10.2c1.1,2,2.3,3.5,2.8,5.1
	c4.9,16.4,12.4,31.6,20.3,46.6c10.5,20.4,22.7,40,36.4,58.5c6.5,8.7,13.6,16.9,22.3,23.5c0.9,0.7,2,1.2,2.9,1.9l-0.9,1.2
	c-1-0.3-1.9-0.7-2.8-1.2c-2.8-2.1-5.9-4-8.2-6.5c-7.2-7.7-15.6-14-23.5-20.9c-12.1-10.5-23.7-21.6-32.2-35.3
	c-5-8-8.8-16.8-13.2-25.2C233.9,313.6,232.9,311.9,231.6,309.3z"/>
<path d="M449.7,560.9l18.6,16.9h-22.8l-14.9-13.4l-36.5,0.6c-5.5,0-11-1-16.1-2.9c-10.5-3.8-14.9-10-14.9-21c0-14.8,0-29.7,0-44.5
	c0-9.9,4.1-15.9,13.2-19.7c5.1-2.1,10.5-3.2,16.1-3.2c13.2-0.1,26.3-0.1,39.5,0c5.7,0,11.3,1.2,16.5,3.5c8.3,3.6,12.7,9.8,12.7,19
	c-0.1,14.7,0,29.3,0,44C461,551.5,459.4,554.5,449.7,560.9z M437.4,549.7c4.3-2.2,5.4-5.8,5.4-10c0-8.8,0-17.7,0-26.5
	c0-5.2,0.1-10.3,0-15.5c-0.1-5.4-2.3-8.3-7.4-10c-1.7-0.6-3.5-0.9-5.4-0.9c-10.8-0.1-21.6,0-32.5,0c-1.2,0-2.3,0.1-3.5,0.3
	c-8.2,1.8-9.8,6.3-9.7,11.8c0.2,10.7,0,21.3,0,32c0,3-0.1,6,0,9c0.3,6.4,3.1,9.8,9.3,11.3c3.8,0.9,17.7,0.9,22.3-0.1l-15.4-14h22.8
	C428,541.2,432.7,545.5,437.4,549.7L437.4,549.7z"/>
<path d="M263.2,564.2v-12.8c1.7,0,3.4-0.1,5-0.1c15.5,0,31,0,46.5,0c2.5,0.1,5-0.1,7.5-0.4c5.9-0.9,8.6-4.2,8.6-10.2
	c0-2.2,0-4.3,0-6.5c-0.1-4.7-1.8-7.1-6.4-8.3c-2.9-0.7-5.9-1.1-8.9-1.1c-6.5-0.2-13,0-19.5-0.1c-6,0.1-12-0.9-17.6-2.9
	c-3.4-1.4-6.6-3.1-9.6-5.2c-3.1-1.9-5-5.1-5.3-8.7c-0.2-6-0.1-12,0.4-17.9c0.4-4.6,3.1-8,6.8-10.6c4.4-3,9.5-4.9,14.8-5.5
	c3.3-0.4,6.7-0.6,10-0.6c17.3-0.1,34.6,0,52,0c1.1,0,2.2,0.2,3.5,0.3v13h-5.1c-15.8,0-31.7,0-47.5,0c-3,0-6,0.1-9,0.5
	c-4.6,0.7-6.3,2.8-6.4,7.5c-0.2,3-0.2,6,0,9c0.3,4.7,2.6,7.4,7.2,8.3c2.4,0.5,4.9,0.7,7.4,0.7c7.8,0.1,15.7,0,23.5,0.1
	c6.4-0.1,12.6,1.3,18.3,4.1c2.4,1.2,4.6,2.7,6.6,4.3c2.9,2.3,4.6,5.9,4.5,9.6c0,4.3,0,8.7,0,13c0,6.4-3,11.1-8.3,14.5
	c-6.5,4.1-14.1,6.3-21.8,6.3c-18.5,0.2-37,0.1-55.5,0C264.4,564.6,263.8,564.4,263.2,564.2z"/>
<path d="M560.5,551.3v13.1c-1.4,0.1-2.5,0.2-3.6,0.2c-15.7,0-31.3,0.2-47-0.1c-5.3-0.2-10.6-0.8-15.9-1.7c-2.5-0.4-4.9-1.1-7.1-2.1
	c-8.8-3.5-13.5-9.9-13.6-19.5c0-2.5,0-5,0-7.5v-60.5h19.8v65.2c0,1.3-0.1,2.7,0,4c0.3,3.9,2.2,6.8,6,7.6c3.3,0.7,6.6,1.1,9.9,1.2
	c15.3,0.1,30.6,0,46,0H560.5z"/>
<path d="M190.4,88.3l12.2-1.4c6.9,3.7,11.9,8.3,14.4,16.3c0.1,6-1.4,12.1-7.8,16.7c-2.8-5.7-5-11.4-8.3-16.5s-7.3-9.3-11.1-13.9
	L190.4,88.3z"/>
<path d="M591.3,559.1c-5.7,0.1-4.6-6.4-9.3-7.2c-0.4,2.4-0.8,4.8-1.3,7.5c-2.2-2.5-2.5-6.7-1.6-16.3c3.9-0.3,8-1.4,11.8,1.8v4.9
	l-3.6,2.7C588.5,554.5,589.7,556.5,591.3,559.1z M581.7,550l6.1-0.6c0.1-1.4,0.2-2.3,0.3-3.8l-6.4-0.6L581.7,550z"/>
<path class="st0" d="M581.7,550v-5l6.4,0.6c-0.1,1.5-0.2,2.4-0.3,3.8L581.7,550z"/>
</svg>
