<?xml version="1.0" encoding="utf-8"?>
<!-- Generator: Adobe Illustrator 25.2.1, SVG Export Plug-In . SVG Version: 6.00 Build 0)  -->
<svg version="1.1" id="Layer_1" xmlns="http://www.w3.org/2000/svg" xmlns:xlink="http://www.w3.org/1999/xlink" x="0px" y="0px"
	 viewBox="0 0 261 268" style="enable-background:new 0 0 261 268;" xml:space="preserve">
<path d="M232,0c9.4,35,18.8,70.1,28.3,105.7c-5.2,9-10.7,18.3-16.3,28l16.3,27.9c-9.5,35.2-18.7,70.4-28.4,105.6l-105.6-28.3
	l-15.6-27.4H79.4L1.8,134C27.5,108.3,53.3,82.4,80,55.8l30.3,0.8c5.3-9.2,10.6-18.5,16-28c11.2-3,22.3-6.1,33.5-9.2
	c11.3-3.1,22.7-6.2,34-9.2C205.6,7,217.5,4,229.3,0.9c0.6-0.2,1.1-0.5,1.7-0.9H232z M217.8,52.2l-1.5-0.5
	c-15.8,27.3-31.6,54.6-47.3,81.9c0.7,1.4,1.3,2.4,1.8,3.4l31.1,53.9c4.2,7.3,8.5,14.7,12.7,22c0.6,1.1,1.1,2.6,3.2,1.9
	c2.3-7.8,4.6-15.7,6.9-23.7c5-17.9,9.9-35.8,14.9-53.6c0.7-2.6,0.7-5.3-0.1-7.8c-4.9-17.2-9.7-34.5-14.5-51.7L217.8,52.2z
	 M52.7,147.3l59,60.3c10.3,2.7,20.6,5.4,30.8,8c15.4,3.9,30.8,7.9,46.2,11.8c1.8,0.5,3.5,1.1,5.2,0c-0.8-3.5-42-75.6-46.1-80.8
	C140.4,145.8,57.1,146.1,52.7,147.3z M52.3,120.7H148c0.6-0.8,1.2-1.6,1.8-2.5c7.2-12.4,14.3-24.8,21.5-37.1
	c7.1-12.2,14.1-24.5,21.2-36.7c0.8-1.5,2.2-3,1-5.5c-27.3,6.6-54.5,14.1-81.8,20.8c-1.8,2-3.5,4-5.3,5.9c-16.7,17-33.4,34-50.1,50.9
	C55.1,117.5,54.2,118.6,52.3,120.7L52.3,120.7z"/>
</svg>
