<svg id="Layer_1" data-name="Layer 1" xmlns="http://www.w3.org/2000/svg" viewBox="0 0 534.17 475.1"><defs><style>.cls-1{fill:#fff;}</style></defs><title>unreal</title><path class="cls-1" d="M303.37,629.13H39.24V154H573.41V451.5a26.27,26.27,0,0,0-2.09,1.7c-5,4.95-9.8,10.09-15,14.84-16.17,14.89-33.83,27.65-54,36.65-7.8,3.49-15.64,7.06-24.69,5.21-6.49-1.33-12.92-2.66-18.46-6.59a10.38,10.38,0,0,1-4.68-9.11q.09-104.32,0-208.65a45.09,45.09,0,0,1,4.6-19.87,209.64,209.64,0,0,1,18-30.68c11.32-16.08,23-31.89,34.57-47.81L513.3,185a133,133,0,0,0-14.47,3.62c-24.74,7.41-48.65,16.86-71.1,29.74-16.16,9.27-31.26,20-44.13,33.57-2.68,2.83-5.13,5.88-7.82,9-4.23-6.51-10.17-10.7-17.19-13.44a61,61,0,0,0-22.14-3.83,14.65,14.65,0,0,0,1,1.29,105.41,105.41,0,0,1,22.59,34c3.33,7.8,5.65,15.87,5.65,24.45q0,74.37,0,148.73,0,15.19,0,30.38a3,3,0,0,1-1.39,3c-13.54,8.45-27.34,16.36-42.42,21.82-10.46,3.78-21,4.29-31.57.8-8.23-2.7-13.79-9.43-14.21-18-.38-7.71-.22-15.46-.2-23.19q.14-46.31.33-92.61.21-49.26.47-98.51c0-.74-.07-1.47-.11-2.22-5.28.68-8.11.51-11-.61-6.82-2.65-10.57-8.12-13.21-14.53-3.63-8.84-4.6-18.19-5.14-27.61-.35-6.06-.38-12.07,1.86-17.88,3.38-8.73,8.87-16.08,15.08-22.93,11.68-12.87,25.2-23.61,39.44-33.5.59-.4,1.12-.89,1.68-1.35a3.14,3.14,0,0,0-1.56.09,282.35,282.35,0,0,0-40.48,10.46A329.16,329.16,0,0,0,202.73,193a350.66,350.66,0,0,0-98.39,84.52A318.17,318.17,0,0,0,69.2,331.94a280,280,0,0,0-20.36,52.29A243.76,243.76,0,0,0,39.69,446c0,1.36,0,2.72,0,4.67.63-1,.94-1.45,1.21-1.92C51,431.14,61.6,414,73.31,397.43c11.35-16,23.53-31.36,37.6-45.12,10.14-9.9,21-18.93,33.72-25.37,8.2-4.13,16.7-7,26.08-6.28,7,.51,12.65,4.39,14.58,11.11a41.05,41.05,0,0,1,1.46,11.2q.13,89.13.06,178.27c0,1.19-.06,2.39-.12,3.58a12.81,12.81,0,0,1-4.56,9.18c-3.89,3.49-8.65,5.1-13.65,6.11-11.3,2.28-22.65,2-34,.7l-5.78-.64c.6,1,1,1.62,1.39,2.23A156.19,156.19,0,0,0,158.59,573a213.13,213.13,0,0,0,49.31,30.07,322.38,322.38,0,0,0,88.9,24.85C299,628.21,301.18,628.72,303.37,629.13Z" transform="translate(-39.24 -154.03)"/><path d="M303.37,629.13c-2.19-.41-4.36-.92-6.57-1.22a322.38,322.38,0,0,1-88.9-24.85A213.13,213.13,0,0,1,158.59,573a156.19,156.19,0,0,1-28.52-30.59c-.42-.61-.79-1.26-1.39-2.23l5.78.64c11.37,1.27,22.72,1.58,34-.7,5-1,9.76-2.62,13.65-6.11a12.81,12.81,0,0,0,4.56-9.18c.06-1.19.12-2.39.12-3.58q0-89.13-.06-178.27a41.05,41.05,0,0,0-1.46-11.2c-1.93-6.72-7.54-10.6-14.58-11.11-9.38-.68-17.88,2.15-26.08,6.28-12.75,6.44-23.58,15.47-33.72,25.37-14.07,13.76-26.25,29.09-37.6,45.12C61.6,414,51,431.14,40.9,448.7c-.27.47-.58.92-1.21,1.92,0-1.95,0-3.31,0-4.67a243.76,243.76,0,0,1,9.15-61.72A280,280,0,0,1,69.2,331.94a318.17,318.17,0,0,1,35.14-54.42A350.66,350.66,0,0,1,202.73,193a329.16,329.16,0,0,1,60.51-27.33,282.35,282.35,0,0,1,40.48-10.46,3.14,3.14,0,0,1,1.56-.09c-.56.46-1.09.95-1.68,1.35-14.24,9.89-27.76,20.63-39.44,33.5-6.21,6.85-11.7,14.2-15.08,22.93-2.24,5.81-2.21,11.82-1.86,17.88.54,9.42,1.51,18.77,5.14,27.61,2.64,6.41,6.39,11.88,13.21,14.53,2.91,1.12,5.74,1.29,11,.61,0,.75.12,1.48.11,2.22q-.22,49.26-.47,98.51-.19,46.31-.33,92.61c0,7.73-.18,15.48.2,23.19.42,8.6,6,15.33,14.21,18,10.61,3.49,21.11,3,31.57-.8,15.08-5.46,28.88-13.37,42.42-21.82a3,3,0,0,0,1.39-3q0-15.18,0-30.38,0-74.35,0-148.73c0-8.58-2.32-16.65-5.65-24.45a105.41,105.41,0,0,0-22.59-34,14.65,14.65,0,0,1-1-1.29,61,61,0,0,1,22.14,3.83c7,2.74,13,6.93,17.19,13.44,2.69-3.11,5.14-6.16,7.82-9,12.87-13.6,28-24.3,44.13-33.57,22.45-12.88,46.36-22.33,71.1-29.74A133,133,0,0,1,513.3,185l-1.63,2.24c-11.55,15.92-23.25,31.73-34.57,47.81a209.64,209.64,0,0,0-18,30.68,45.09,45.09,0,0,0-4.6,19.87q.21,104.32,0,208.65a10.38,10.38,0,0,0,4.68,9.11c5.54,3.93,12,5.26,18.46,6.59,9.05,1.85,16.89-1.72,24.69-5.21,20.15-9,37.81-21.76,54-36.65,5.16-4.75,10-9.89,15-14.84a26.27,26.27,0,0,1,2.09-1.7v1.68a7.94,7.94,0,0,0-.78,1.17c-1.86,4.24-3.43,8.63-5.59,12.7-8.42,15.89-18.93,30.37-30.35,44.2a346.88,346.88,0,0,1-56.05,54.29,298,298,0,0,1-52.8,32.55A5.86,5.86,0,0,1,422,598c-18.05-9.12-36.18-18.1-54.23-27.21-1.6-.8-2.52-.69-3.78.58q-27.9,28-55.89,56a16,16,0,0,0-1.36,1.8Z" transform="translate(-39.24 -154.03)"/><path class="cls-1" d="M306.75,629.13a16,16,0,0,1,1.36-1.8q27.94-28,55.89-56c1.26-1.27,2.18-1.38,3.78-.58C385.83,579.89,404,588.87,422,598a5.86,5.86,0,0,0,5.83.1,298,298,0,0,0,52.8-32.55,346.88,346.88,0,0,0,56.05-54.29c11.42-13.83,21.93-28.31,30.35-44.2,2.16-4.07,3.73-8.46,5.59-12.7a7.94,7.94,0,0,1,.78-1.17v176Z" transform="translate(-39.24 -154.03)"/></svg>