<?xml version="1.0" encoding="utf-8"?>
<!-- Generator: Adobe Illustrator 25.2.1, SVG Export Plug-In . SVG Version: 6.00 Build 0)  -->
<svg version="1.1" id="Layer_1" xmlns="http://www.w3.org/2000/svg" xmlns:xlink="http://www.w3.org/1999/xlink" x="0px" y="0px"
	 viewBox="0 0 523.6 523.6" style="enable-background:new 0 0 523.6 523.6;" xml:space="preserve">
<path d="M523.6,81.8V441c-0.1,0.2-0.3,0.3-0.4,0.5c-2.1,12.8-9.7,21-21.2,26.4c-17.8,8.3-35.5,17-53.2,25.5
	c-17.3,8.3-34.6,16.8-52,24.9c-12.7,6.1-27.9,3.1-37.4-7.4L204.1,339.1c-5.8-6.4-11.6-12.8-17.5-19.3c-0.9,0.7-1.6,1.2-2.3,1.8
	c-14.2,11.6-28.4,23.3-42.6,35c-21.8,17.9-43.5,35.8-65.3,53.7c-6.8,5.5-14.4,6.9-22.5,3.7c-13.4-5.3-26.7-10.8-39.9-16.5
	c-8.7-3.8-13.2-10.8-13.3-20.2c-0.1-77.2-0.1-154.5,0-231.7c0-9.3,4.4-16.3,13-20c13.4-5.8,26.9-11.4,40.4-16.8
	c7.8-3.2,15.3-1.9,21.9,3.4c3.7,3,7.2,6.2,10.8,9.2c22,18,43.9,36,65.9,54l33.8,27.7c1.9-2.1,3.8-4.1,5.6-6.1l61-67.5
	C288,90.7,322.9,52.1,357.8,13.5c11.4-12.6,25.5-15.6,40.9-8.3c35.1,16.8,70.1,33.6,105.2,50.5c8.8,4.2,14.9,10.7,18,19.9
	C522.6,77.6,523.1,79.7,523.6,81.8z M392.9,150.5L257.7,261.4l135.2,110.8V150.5z M66.1,186.6v149.5l67.6-74.8L66.1,186.6z"/>
</svg>
